<?xml version="1.0" standalone="no"?>
<!DOCTYPE svg PUBLIC "-//W3C//DTD SVG 20010904//EN"
 "http://www.w3.org/TR/2001/REC-SVG-20010904/DTD/svg10.dtd">
<svg version="1.0" xmlns="http://www.w3.org/2000/svg"
 width="1024.000000pt" height="1024.000000pt" viewBox="0 0 1024.000000 1024.000000"
 preserveAspectRatio="xMidYMid meet">

<g transform="translate(0.000000,1024.000000) scale(0.100000,-0.100000)"
fill="#000000" stroke="none">
<path d="M4855 8834 c-265 -27 -501 -67 -686 -118 -681 -187 -1282 -540 -1764
-1037 -828 -854 -1193 -2073 -985 -3289 89 -516 299 -1011 621 -1462 l69 -96
208 120 c322 187 721 417 1022 588 151 86 334 191 405 232 72 42 270 155 440
253 171 98 425 244 565 324 140 81 352 203 470 271 216 124 782 450 1243 717
275 159 292 165 348 115 26 -23 32 -36 32 -71 0 -26 -8 -52 -19 -68 -11 -14
-86 -64 -169 -112 -599 -350 -1007 -586 -1720 -993 -231 -132 -460 -264 -510
-293 -96 -56 -641 -368 -865 -495 -360 -204 -1168 -670 -1278 -737 l-33 -20
39 -49 c47 -58 290 -297 382 -375 222 -190 484 -362 775 -509 511 -260 1097
-400 1676 -400 868 0 1744 323 2424 894 446 375 779 818 1013 1348 148 334
260 782 298 1183 19 205 14 603 -10 793 -106 819 -457 1561 -1004 2124 l-123
126 -97 -33 c-587 -201 -1245 -467 -1882 -761 -123 -57 -237 -104 -252 -104
-16 0 -41 12 -60 29 -29 26 -33 35 -32 77 1 42 5 52 35 77 37 31 313 162 668
317 490 214 972 404 1296 512 66 22 124 43 128 48 19 17 -282 234 -493 355
-484 278 -916 427 -1450 501 -110 15 -627 28 -725 18z m533 -345 c222 -20 221
-18 32 -78 -517 -167 -1173 -458 -1720 -762 -536 -298 -1148 -701 -1527 -1005
l-152 -122 36 71 c175 348 377 631 638 892 229 230 447 399 709 549 464 267
908 407 1456 459 85 9 425 6 528 -4z m818 -170 c85 -27 154 -54 154 -58 0 -4
-26 -15 -57 -25 -32 -10 -141 -54 -242 -97 -105 -45 -198 -79 -217 -79 -99 0
-139 142 -55 196 26 18 238 112 254 113 5 1 78 -22 163 -50z m-896 -364 c7 -9
10 -25 6 -40 -6 -22 -11 -26 -39 -23 -25 2 -33 8 -35 26 -7 44 41 70 68 37z
m-1204 -680 c155 -96 155 -314 0 -410 -44 -27 -58 -30 -126 -30 -68 0 -82 3
-126 30 -130 81 -153 259 -47 369 56 58 105 77 184 74 53 -3 76 -10 115 -33z
m3348 -127 c15 -24 -3 -52 -37 -56 -28 -4 -43 23 -32 59 8 25 52 23 69 -3z
m-4164 -228 c11 -11 20 -29 20 -40 0 -28 -35 -60 -64 -60 -28 0 -56 33 -56 67
0 50 63 70 100 33z m3391 -339 c22 -23 29 -39 29 -69 0 -65 -29 -89 -242 -197
-969 -491 -2144 -1137 -2943 -1618 -547 -330 -1071 -656 -1388 -863 -87 -57
-161 -104 -165 -104 -4 0 -26 43 -49 96 l-42 95 187 123 c491 322 1400 876
2007 1223 294 168 1089 612 1260 703 55 29 127 67 160 85 33 18 233 121 445
230 212 109 439 226 505 261 144 76 188 82 236 35z m909 -26 c64 -33 75 -113
23 -167 -22 -23 -35 -28 -72 -28 -92 1 -138 81 -91 158 31 51 85 65 140 37z
m-5006 -127 c40 -35 43 -78 11 -116 -35 -42 -85 -44 -120 -6 -73 79 30 192
109 122z m1164 -161 c28 -14 52 -56 52 -92 0 -50 -30 -80 -149 -150 -175 -103
-422 -250 -550 -327 -133 -79 -165 -85 -211 -39 -51 50 -52 114 -2 159 28 24
712 433 767 458 31 13 52 11 93 -9z m1188 -31 c58 -49 20 -146 -56 -146 -44 0
-82 38 -83 83 -2 77 80 114 139 63z m3032 -734 c4 -28 -14 -52 -38 -52 -26 0
-43 26 -36 55 6 22 11 26 39 23 25 -2 33 -8 35 -26z m562 -385 l0 -312 -221
-180 c-122 -99 -249 -203 -283 -230 -214 -177 -823 -616 -1146 -827 -495 -322
-1163 -728 -1610 -979 -418 -233 -1324 -709 -1353 -709 -7 0 -130 59 -275 132
-305 153 -294 126 -99 228 235 122 623 332 1122 608 364 201 1040 601 1495
884 908 565 1653 1095 2270 1616 52 45 96 81 98 81 1 1 2 -140 2 -312z m-3200
91 c39 -42 13 -108 -42 -108 -51 0 -78 85 -36 114 31 22 54 20 78 -6z m2252
-45 c20 -18 24 -63 6 -81 -7 -7 -24 -12 -38 -12 -33 0 -50 17 -50 49 0 28 26
61 48 61 9 0 24 -7 34 -17z m-2882 -224 c73 -41 108 -131 79 -206 -35 -93
-165 -143 -245 -94 -124 76 -118 238 11 309 34 19 113 14 155 -9z m1995 -224
c15 -14 25 -36 25 -53 0 -85 -108 -114 -146 -40 -42 81 57 158 121 93z m-4742
-66 c52 -24 75 -115 40 -158 -18 -21 -215 -152 -221 -147 -4 5 -32 178 -32
203 0 15 18 35 63 67 65 47 103 56 150 35z m4247 -263 c31 -38 -9 -89 -54 -68
-45 20 -30 82 20 82 12 0 27 -7 34 -14z m-2495 -80 c0 -36 -26 -56 -49 -37
-16 14 -22 52 -9 65 4 4 19 6 33 4 20 -2 25 -8 25 -32z m4650 -248 c-31 -89
-61 -177 -68 -195 -13 -33 -81 -86 -365 -283 -84 -58 -205 -142 -269 -188
-123 -87 -147 -98 -189 -88 -68 17 -98 112 -54 169 11 13 129 103 262 198 276
197 511 373 643 482 50 41 91 73 93 71 2 -1 -22 -76 -53 -166z m-5461 -237
c27 -30 25 -89 -3 -112 -72 -58 -168 32 -111 104 27 34 87 38 114 8z m1837
-212 c21 -7 54 -25 74 -41 112 -93 104 -266 -17 -346 -36 -24 -51 -27 -119
-27 -70 0 -81 3 -121 30 -110 78 -127 222 -37 320 60 65 139 88 220 64z m2925
-594 c45 -19 70 -72 55 -118 -21 -63 -347 -383 -536 -528 -95 -73 -291 -201
-407 -267 -412 -234 -846 -371 -1348 -428 -234 -26 -234 -28 24 102 345 172
557 284 806 424 449 253 618 357 1013 619 161 106 301 197 312 201 29 12 42
12 81 -5z m-4258 -262 c54 -59 9 -163 -72 -163 -39 0 -82 35 -92 74 -24 97 96
163 164 89z"/>
</g>
</svg>
