<svg xmlns="http://www.w3.org/2000/svg" viewBox="0 0 60 75" x="0px" y="0px"><path d="M24.268,34.092c.472-1.718,1.033-3.41,1.594-5.06a28.113,28.113,0,0,1-8.242,1.6,10.939,10.939,0,0,1-8.139-3.344A12.584,12.584,0,0,1,18.374,5.8a15.123,15.123,0,0,0-4.409-1.015C10.643,4.555,7.972,5.632,6.8,6.8l0,0a16.409,16.409,0,0,0,0,23.179C12.682,35.853,18.894,35.431,24.268,34.092Z"/><path d="M23.461,19.933a1,1,0,0,1,.594-.68l.934-.378a6.248,6.248,0,0,0,0-.749l-.936-.379a1,1,0,0,1-.594-.68A4.179,4.179,0,0,0,23.017,16a1,1,0,0,1-.056-.9l.394-.923a7.337,7.337,0,0,0-.528-.53l-.924.395a.992.992,0,0,1-.9-.056,4.179,4.179,0,0,0-1.071-.444,1,1,0,0,1-.68-.594l-.378-.933a6.262,6.262,0,0,0-.749,0l-.379.936a1,1,0,0,1-.68.594A4.179,4.179,0,0,0,16,13.983a1,1,0,0,1-.9.056l-.923-.394c-.186.168-.367.348-.53.528l.395.924a1,1,0,0,1-.056.9,4.179,4.179,0,0,0-.444,1.071,1,1,0,0,1-.594.68l-.933.378a6.261,6.261,0,0,0,0,.749l.936.379a1,1,0,0,1,.594.68A4.179,4.179,0,0,0,13.983,21a1,1,0,0,1,.056.9l-.394.923a7.337,7.337,0,0,0,.528.53l.924-.4a.992.992,0,0,1,.889.051,4.99,4.99,0,0,0,1.113.466,1,1,0,0,1,.66.591l.367.919a6.228,6.228,0,0,0,.747,0l.368-.922a1,1,0,0,1,.66-.591,4.99,4.99,0,0,0,1.113-.466.992.992,0,0,1,.889-.051l.923.394a7.337,7.337,0,0,0,.53-.528l-.4-.924a1,1,0,0,1,.056-.9A4.179,4.179,0,0,0,23.461,19.933Z"/><path d="M35.735,25.911c-.472,1.721-1.034,3.416-1.595,5.069,6.244-1.978,11.8-2.846,16.381,1.734a12.614,12.614,0,0,1,0,17.806h0A12.572,12.572,0,0,1,41.63,54.2c5.29,2.06,9.772.8,11.571-1a16.408,16.408,0,0,0,0-23.176C47.332,24.156,41.115,24.574,35.735,25.911Z"/><path d="M29.979,6.8A16.4,16.4,0,0,0,13.441,2.779c.222.006.434,0,.663.012,3.184.223,8.055,1.564,13.182,6.688l0,0v0l0,0h0c5.432,5.427,3.034,12.56,1.106,18.293v0l-.419,1.235c-2.764,8.119-5.624,16.514,2.046,24.184a16.4,16.4,0,0,0,16.422,4.06c-3.946-.11-8.8-1.8-13.738-6.744h0c-5.033-5.037-3.479-11.26-1.106-18.282h0l.431-1.273C34.79,22.853,37.64,14.469,29.979,6.8Z"/><path d="M36.539,40.067a1,1,0,0,1-.594.68l-.933.378a6.261,6.261,0,0,0,0,.749l.936.379a1,1,0,0,1,.594.68A4.179,4.179,0,0,0,36.983,44a1,1,0,0,1,.056.9l-.394.923a7.337,7.337,0,0,0,.528.53l.924-.4a.989.989,0,0,1,.889.051,4.99,4.99,0,0,0,1.113.466,1,1,0,0,1,.66.591l.367.919a6.228,6.228,0,0,0,.747,0l.368-.922a1,1,0,0,1,.66-.591,4.99,4.99,0,0,0,1.113-.466.988.988,0,0,1,.889-.051l.923.394a7.337,7.337,0,0,0,.53-.528l-.4-.924a1,1,0,0,1,.056-.9,4.179,4.179,0,0,0,.444-1.071,1,1,0,0,1,.594-.68l.934-.378a6.248,6.248,0,0,0,0-.749l-.936-.379a1,1,0,0,1-.594-.68A4.179,4.179,0,0,0,46.017,39a1,1,0,0,1-.056-.9l.394-.923a7.337,7.337,0,0,0-.528-.53l-.924.4a1,1,0,0,1-.9-.056,4.179,4.179,0,0,0-1.071-.444,1,1,0,0,1-.68-.594l-.378-.933a5.87,5.87,0,0,0-.749,0l-.379.936a1,1,0,0,1-.68.594A4.179,4.179,0,0,0,39,36.983a1,1,0,0,1-.9.056l-.923-.394c-.186.168-.367.348-.53.528l.4.924a1,1,0,0,1-.056.9A4.179,4.179,0,0,0,36.539,40.067Z"/><text x="0" y="75" fill="#000000" font-size="5px" font-weight="bold" font-family="'Helvetica Neue', Helvetica, Arial-Unicode, Arial, Sans-serif">Created by Juicy Fish</text><text x="0" y="80" fill="#000000" font-size="5px" font-weight="bold" font-family="'Helvetica Neue', Helvetica, Arial-Unicode, Arial, Sans-serif">from the Noun Project</text></svg>
