<?xml version="1.0" standalone="no"?>
<!DOCTYPE svg PUBLIC "-//W3C//DTD SVG 20010904//EN"
 "http://www.w3.org/TR/2001/REC-SVG-20010904/DTD/svg10.dtd">
<svg version="1.0" xmlns="http://www.w3.org/2000/svg"
 width="1024.000000pt" height="1024.000000pt" viewBox="0 0 1024.000000 1024.000000"
 preserveAspectRatio="xMidYMid meet">

<g transform="translate(0.000000,1024.000000) scale(0.100000,-0.100000)"
fill="#000000" stroke="none">
<path d="M1090 9179 c-69 -31 -70 -35 -70 -499 0 -370 2 -415 17 -441 35 -59
42 -60 480 -55 219 3 412 5 430 5 18 1 44 12 62 27 l31 26 0 445 0 445 -29 29
c-16 16 -38 30 -48 30 -10 1 -202 2 -427 3 -358 1 -415 -1 -446 -15z m860 -75
c13 -15 10 -797 -3 -810 -4 -5 -24 -7 -44 -6 -38 3 -63 17 -63 34 0 6 6 5 14
-1 8 -7 27 -11 43 -9 24 3 28 8 28 33 0 38 -28 45 -60 15 -19 -18 -23 -19 -28
-6 -7 19 -37 10 -37 -10 0 -8 -4 -14 -10 -14 -5 0 12 42 39 93 62 118 80 208
63 309 -14 78 -33 120 -91 197 -22 29 -41 57 -43 62 -6 17 -52 21 -231 22
l-177 1 -54 -53 c-128 -126 -162 -289 -96 -463 21 -57 39 -86 82 -137 28 -33
71 -51 62 -27 -3 7 18 40 47 73 51 60 52 60 88 51 19 -6 61 -7 92 -4 l57 7 45
-58 c48 -60 52 -72 18 -54 -32 18 -310 9 -322 -10 -16 -25 -10 -29 49 -30 41
0 51 -3 37 -9 -14 -6 5 -9 60 -11 44 -1 -25 -6 -154 -10 -165 -6 -239 -5 -248
3 -19 16 -19 811 0 827 10 7 133 12 393 13 410 3 428 2 444 -18z m-283 -165
c45 -14 134 -114 156 -175 33 -95 13 -211 -53 -304 l-23 -33 -28 34 c-27 33
-27 34 -9 59 35 50 60 110 60 143 0 110 -113 221 -219 216 -46 -2 -53 0 -85
34 l-34 36 47 3 c63 5 149 -2 188 -13z m-279 -49 c27 -36 28 -43 3 -35 -14 4
-27 -5 -50 -37 -17 -23 -31 -47 -31 -52 0 -6 6 -2 12 9 15 28 50 65 60 65 5 0
1 -12 -10 -27 -67 -96 -78 -169 -37 -247 30 -56 30 -64 4 -96 -21 -24 -21 -24
-35 -5 -8 11 -29 48 -46 82 -28 57 -30 70 -26 131 4 47 14 85 32 123 25 49 81
119 96 119 3 0 16 -13 28 -30z m212 -115 c86 -45 75 -183 -17 -222 -46 -19
-97 -6 -136 33 -97 97 30 252 153 189z m-200 -429 c0 -2 -8 -10 -17 -17 -16
-13 -17 -12 -4 4 13 16 21 21 21 13z m38 -9 c9 -10 6 -13 -12 -13 -16 0 -22 5
-19 13 3 7 9 13 13 13 4 0 12 -6 18 -13z m383 -10 c-10 -9 -11 -8 -5 6 3 10 9
15 12 12 3 -3 0 -11 -7 -18z"/>
<path d="M1150 8994 c0 -32 2 -35 26 -32 55 6 59 68 4 68 -28 0 -30 -3 -30
-36z"/>
<path d="M1867 9024 c-4 -4 -7 -20 -7 -36 0 -25 4 -28 30 -28 34 0 49 23 33
49 -11 17 -44 26 -56 15z"/>
<path d="M1145 8351 c-10 -33 5 -52 38 -49 38 4 56 30 38 52 -19 23 -68 21
-76 -3z"/>
<path d="M1373 8293 c9 -2 23 -2 30 0 6 3 -1 5 -18 5 -16 0 -22 -2 -12 -5z"/>
<path d="M2478 9172 l-28 -24 0 -334 0 -334 35 0 35 0 2 318 3 317 128 0 127
0 3 -332 2 -331 -28 -5 c-15 -2 -29 -1 -32 1 -3 3 -5 108 -5 233 0 194 -2 230
-16 243 -19 19 -25 20 -48 3 -17 -13 -18 -32 -17 -250 l2 -237 -97 0 -96 0 4
-459 c3 -429 2 -460 -14 -464 -15 -4 -17 -17 -11 -128 6 -134 18 -171 69 -223
45 -45 83 -56 194 -56 109 0 153 14 196 62 48 52 55 80 52 216 l-3 127 -37 3
-38 3 0 458 0 459 -22 15 -23 16 23 7 22 6 0 332 0 333 -26 24 c-25 23 -31 24
-177 24 -144 0 -153 -1 -179 -23z m150 -814 c0 -7 3 -28 6 -45 l5 -33 -52 0
-52 0 3 45 4 45 42 0 c27 0 43 -5 44 -12z m-28 -417 c0 -5 3 -16 6 -25 5 -13
-1 -16 -30 -16 -32 0 -36 3 -36 25 0 21 5 25 30 25 17 0 30 -4 30 -9z m180
-361 l0 -250 -124 0 -123 0 -2 250 -1 250 125 0 125 0 0 -250z m-200 -350 c0
-23 -10 -26 -28 -8 -18 18 -15 28 8 28 13 0 20 -7 20 -20z"/>
<path d="M2656 7641 c-19 -21 -15 -51 10 -72 13 -10 20 -8 41 14 23 23 25 29
15 52 -14 30 -42 32 -66 6z"/>
<path d="M2720 7471 c0 -21 5 -31 15 -31 8 0 15 9 15 20 0 11 0 23 1 28 0 4
-7 8 -15 10 -12 3 -16 -5 -16 -27z"/>
<path d="M4273 9176 l-27 -24 0 -158 c0 -88 0 -371 2 -631 l2 -472 56 -65 c30
-36 63 -66 73 -66 27 0 41 21 41 61 0 21 4 40 8 43 5 3 25 -4 46 -15 41 -22
63 -16 90 23 14 20 16 100 16 660 l0 637 -22 15 c-17 12 -50 16 -140 16 -109
0 -119 -2 -145 -24z m162 -56 c49 0 65 -3 55 -10 -8 -5 -41 -10 -72 -10 -53 0
-58 -2 -58 -22 0 -37 -11 -66 -26 -72 -11 -4 -14 8 -14 60 0 64 1 66 23 60 12
-3 54 -6 92 -6z m-70 -185 c0 -5 -10 -11 -22 -13 -16 -2 -23 2 -23 13 0 11 7
15 23 13 12 -2 22 -7 22 -13z m35 -79 c0 -8 -12 -17 -26 -20 -26 -7 -26 -9
-21 -62 5 -49 4 -54 -14 -54 -17 0 -19 8 -19 75 l0 75 40 0 c28 0 40 -4 40
-14z m-23 -118 c-3 -7 -5 -2 -5 12 0 14 2 19 5 13 2 -7 2 -19 0 -25z m-15 -88
c5 0 8 -12 6 -27 -3 -24 1 -28 25 -31 38 -5 36 -32 -3 -32 -20 0 -30 -5 -30
-15 0 -9 9 -15 24 -15 15 0 26 -7 29 -20 4 -17 0 -20 -24 -20 -19 0 -29 -5
-29 -15 0 -8 8 -15 19 -15 10 0 24 -7 31 -15 11 -13 8 -15 -19 -15 -37 0 -41
-17 -6 -30 32 -12 33 -40 1 -40 -13 0 -26 -7 -30 -15 -4 -11 1 -15 17 -15 24
0 54 -16 46 -24 -3 -3 -16 -7 -30 -9 -13 -2 -26 -12 -27 -21 -2 -10 2 -16 10
-15 30 4 48 -2 48 -16 0 -10 -10 -15 -31 -15 -24 0 -30 -4 -27 -17 2 -10 13
-19 26 -21 30 -4 28 -20 -3 -28 -14 -3 -25 -12 -25 -20 0 -8 10 -14 25 -14 16
0 25 -6 25 -15 0 -9 -9 -15 -25 -15 -16 0 -25 -6 -25 -15 0 -8 9 -15 20 -15
11 0 20 -2 20 -4 0 -2 2 -11 6 -19 3 -10 -4 -16 -25 -20 -40 -8 -40 -27 0 -27
47 0 30 -24 -19 -28 l-42 -3 0 346 c0 312 2 347 16 341 9 -3 20 -6 26 -6z"/>
<path d="M4720 9187 c-13 -7 -30 -23 -36 -35 -15 -31 -19 -1646 -4 -1702 20
-74 39 -80 235 -80 l173 0 31 35 31 36 0 830 c0 909 2 882 -59 913 -39 21
-332 23 -371 3z m258 -93 c3 -33 20 -44 70 -44 l22 0 -2 -726 -3 -727 -35 -3
c-47 -5 -70 -35 -70 -90 l0 -44 -100 0 c-99 0 -101 0 -110 26 -6 16 -10 327
-10 819 0 715 2 795 16 810 13 13 35 15 118 13 l101 -3 3 -31z"/>
<path d="M4790 9045 c0 -24 5 -35 14 -35 32 0 46 13 46 41 0 26 -4 29 -30 29
-28 0 -30 -3 -30 -35z"/>
<path d="M4802 8953 c2 -20 9 -28 23 -28 14 0 21 8 23 28 3 23 0 27 -23 27
-23 0 -26 -4 -23 -27z"/>
<path d="M4790 8875 c0 -21 5 -25 29 -25 33 0 44 11 35 34 -4 10 -18 16 -35
16 -24 0 -29 -4 -29 -25z"/>
<path d="M4795 8779 c-9 -27 4 -40 33 -33 33 9 31 54 -2 54 -16 0 -27 -7 -31
-21z"/>
<path d="M4796 8703 c-3 -3 -6 -15 -6 -25 0 -23 58 -26 67 -3 3 9 4 17 2 19
-10 8 -57 15 -63 9z"/>
<path d="M4798 8603 c-8 -29 2 -43 28 -43 20 0 24 5 24 30 0 25 -4 30 -24 30
-14 0 -25 -7 -28 -17z"/>
<path d="M4922 8583 c2 -22 8 -28 28 -28 20 0 25 5 25 25 0 20 -6 26 -28 28
-26 3 -28 1 -25 -25z"/>
<path d="M4790 8511 c0 -20 32 -37 50 -26 5 3 10 15 10 26 0 14 -7 19 -30 19
-23 0 -30 -5 -30 -19z"/>
<path d="M4950 8450 c-11 -11 -20 -25 -20 -31 0 -6 9 -13 20 -16 11 -3 20 -10
20 -17 0 -6 0 -137 0 -292 0 -154 2 -288 6 -297 4 -11 17 -17 35 -17 l29 0 0
324 0 325 -26 20 c-33 26 -39 26 -64 1z"/>
<path d="M4907 7713 c-45 -7 -25 -27 34 -35 57 -7 76 0 66 26 -6 16 -36 18
-100 9z"/>
<path d="M4910 7585 c-7 -9 -11 -17 -9 -20 3 -2 10 5 17 15 14 24 10 26 -8 5z"/>
<path d="M4794 7566 c-11 -29 1 -51 26 -51 19 0 26 6 28 24 5 35 -42 58 -54
27z"/>
<path d="M7133 9190 c-254 -4 -335 -8 -345 -18 -10 -10 -14 -182 -18 -850 -3
-460 -1 -851 3 -869 15 -63 16 -63 389 -63 l337 0 28 24 28 24 3 850 2 851
-22 24 c-13 14 -34 27 -48 29 -14 1 -174 1 -357 -2z m-245 -66 c30 -8 28 -28
-4 -43 -29 -13 -44 -7 -44 18 0 30 10 35 48 25z m90 -3 c9 -5 11 -17 6 -34 -5
-24 -3 -27 21 -27 24 0 26 3 23 33 -3 30 -1 32 30 35 33 3 34 3 30 -35 -3 -33
0 -38 20 -41 22 -3 23 0 20 35 -3 36 -2 38 27 38 28 0 30 -3 30 -35 0 -28 4
-35 20 -35 17 0 20 6 18 38 -2 36 -2 37 32 37 34 0 35 -1 35 -40 0 -33 3 -40
20 -40 17 0 20 7 20 41 0 39 1 40 33 37 31 -3 32 -5 29 -40 -3 -33 -1 -38 17
-38 18 0 21 6 21 40 0 40 9 47 42 35 19 -8 10 -73 -13 -99 -11 -11 -19 -29
-20 -40 0 -12 -8 -41 -18 -66 -17 -40 -19 -42 -22 -20 l-4 25 -115 0 -115 0
-3 -127 -3 -128 30 0 c29 0 30 1 36 63 4 34 5 76 3 92 -3 29 -2 30 42 30 l45
0 2 -629 c1 -345 4 -634 7 -641 2 -7 -4 -15 -15 -18 -15 -4 -19 -14 -19 -46 0
-30 -4 -41 -15 -41 -11 0 -15 12 -15 45 0 43 -1 45 -30 45 -29 0 -30 -2 -30
-45 0 -38 -3 -45 -20 -45 -17 0 -20 7 -20 46 0 44 -1 45 -27 42 -26 -3 -28 -6
-25 -45 3 -38 1 -43 -17 -43 -16 0 -21 7 -22 28 -3 56 -3 57 -34 57 -29 0 -30
-1 -27 -41 3 -38 1 -42 -22 -46 -25 -5 -26 -4 -26 44 l0 50 -60 -7 c-56 -7
-60 -6 -60 14 0 19 6 21 50 21 43 0 50 3 50 20 0 17 -7 20 -50 20 -43 0 -50 3
-50 20 0 16 7 20 38 20 56 0 82 10 82 31 0 17 -8 19 -60 19 -54 0 -60 2 -60
21 0 17 6 20 33 19 58 -3 67 -1 67 20 0 17 -7 20 -50 20 -43 0 -50 3 -50 20 0
17 8 19 83 22 79 3 82 4 85 28 3 26 3 26 -78 25 -76 0 -80 1 -80 23 0 18 6 22
29 22 34 0 54 20 49 52 -2 19 -10 23 -45 26 -35 3 -43 7 -43 23 0 18 6 20 48
17 42 -3 47 -1 50 20 3 20 0 22 -47 22 -44 0 -51 3 -51 19 0 17 10 20 85 26
81 7 85 9 85 31 0 23 -2 24 -85 24 -69 0 -85 3 -85 15 0 11 12 15 45 15 38 0
45 3 45 20 0 17 -7 20 -45 20 -38 0 -45 3 -45 20 0 17 7 20 50 20 28 0 50 2
50 4 0 2 3 11 6 20 5 13 -3 16 -50 16 -49 0 -56 2 -56 20 0 16 7 20 34 20 51
0 88 17 84 38 -3 14 -13 16 -61 14 -52 -3 -57 -2 -57 17 0 19 6 21 50 21 47 0
50 2 50 25 0 25 -1 26 -50 19 -48 -6 -50 -6 -50 18 0 25 1 25 83 24 l82 -1 3
28 3 27 -85 0 c-72 0 -84 2 -80 15 4 8 18 15 34 15 26 0 46 21 33 34 -4 3 -22
3 -40 0 -26 -5 -33 -3 -33 10 0 12 10 16 40 16 33 0 40 3 40 20 0 17 -7 20
-40 20 -29 0 -40 4 -40 15 0 11 12 15 51 15 47 0 50 2 47 23 -3 19 -9 22 -50
21 -39 0 -48 3 -48 17 0 14 12 19 55 24 45 6 55 11 55 26 0 16 -8 19 -55 19
-48 0 -55 2 -55 20 0 17 7 20 50 20 43 0 50 3 50 20 0 17 -7 20 -50 20 -43 0
-50 3 -50 20 0 17 7 20 51 20 l52 0 -6 40 c-3 24 -1 41 7 44 17 7 20 6 34 -3z
m-80 -1133 c-7 -20 -58 -23 -58 -4 0 11 10 16 31 16 20 0 29 -4 27 -12z m473
-458 c5 0 9 -11 9 -25 0 -14 -4 -25 -9 -25 -11 0 -21 37 -19 75 l1 30 4 -27
c2 -16 9 -28 14 -28z m-471 -30 c0 -16 -7 -20 -30 -20 -23 0 -30 4 -30 20 0
16 7 20 30 20 23 0 30 -4 30 -20z"/>
<path d="M7166 8383 c-4 -8 -6 -41 -6 -74 0 -58 0 -59 29 -59 36 0 43 16 35
85 -6 45 -10 54 -30 58 -14 2 -25 -2 -28 -10z"/>
<path d="M7160 7840 l0 -80 30 0 30 0 0 80 0 80 -30 0 -30 0 0 -80z"/>
<path d="M8448 9172 c-52 -44 -23 -124 50 -138 30 -6 37 -2 81 45 37 39 54 51
77 51 43 0 72 24 58 47 -10 16 -26 18 -125 18 -104 0 -115 -1 -141 -23z m68
-57 c-7 -18 -26 -20 -26 -2 0 18 24 41 28 27 2 -6 1 -17 -2 -25z"/>
<path d="M8950 9175 c0 -17 7 -28 23 -34 28 -11 49 5 45 33 -2 16 -11 22 -35
24 -30 3 -33 1 -33 -23z"/>
<path d="M2185 9176 c-17 -7 -40 -26 -50 -42 -18 -26 -20 -46 -19 -208 l1
-179 32 -29 c34 -30 60 -35 79 -16 9 9 12 9 12 0 0 -17 27 -15 61 5 44 26 52
65 47 242 -4 170 -10 190 -61 221 -37 23 -60 24 -102 6z m69 -72 c24 -23 21
-64 -4 -64 -20 0 -21 -5 -19 -110 1 -72 5 -109 12 -107 6 1 13 -6 15 -15 2
-12 -1 -16 -10 -13 -8 3 -23 -3 -33 -15 -10 -11 -22 -20 -27 -20 -16 0 -6 324
11 343 17 21 35 21 55 1z m-4 -134 l-8 -35 -1 45 c-1 27 3 40 8 35 6 -6 6 -25
1 -45z"/>
<path d="M5335 9183 c-71 -18 -110 -87 -102 -181 7 -86 18 -95 62 -52 39 37
43 51 20 70 -21 17 -19 43 6 74 22 28 53 33 93 15 51 -24 70 33 23 66 -21 15
-62 18 -102 8z"/>
<path d="M6419 9167 c-43 -47 -7 -88 55 -62 19 8 56 15 81 15 l45 0 0 -44 c0
-27 -6 -48 -16 -57 -10 -8 -13 -21 -9 -38 12 -48 24 -53 61 -25 l34 26 0 105
0 104 -116 -2 c-103 -1 -117 -4 -135 -22z"/>
<path d="M7664 9156 l-34 -34 0 -208 c0 -254 1 -255 139 -395 106 -106 113
-109 235 -109 123 0 145 7 203 67 29 29 71 85 95 125 l43 73 0 215 c0 235 -2
246 -58 280 -30 19 -52 20 -310 20 l-279 0 -34 -34z m584 -48 c8 -8 12 -54 12
-142 0 -148 2 -144 -113 -259 -54 -54 -61 -58 -83 -48 -13 6 -24 15 -24 21 0
5 -5 10 -11 10 -6 0 -8 -7 -5 -16 5 -14 4 -15 -9 -4 -13 10 -15 9 -15 -8 0
-11 -6 -23 -12 -25 -8 -3 -6 -6 4 -6 25 -1 19 -40 -9 -67 -32 -30 -29 -37 7
-19 41 21 38 13 -8 -19 -60 -41 -76 -36 -164 55 -102 105 -107 114 -115 193
-5 60 -4 66 13 67 17 1 17 2 2 6 -16 4 -18 18 -18 117 0 168 -22 156 284 156
183 0 255 -3 264 -12z m-188 -518 c-13 -11 -25 -20 -27 -20 -2 0 2 9 9 20 7
11 19 20 27 20 9 0 6 -7 -9 -20z"/>
<path d="M7773 9063 c-19 -4 -23 -11 -23 -41 0 -20 5 -44 10 -52 7 -11 10 -11
10 -2 0 7 4 11 9 7 6 -3 7 6 2 22 -11 40 -4 53 30 53 16 0 29 5 29 10 0 10
-25 11 -67 3z"/>
<path d="M7862 9053 c5 -7 8 -29 6 -49 -2 -27 1 -38 12 -41 10 -3 11 -2 4 4
-7 5 -8 16 -3 28 5 14 8 16 9 5 2 -8 5 -2 9 15 4 20 14 31 31 35 19 5 13 8
-27 11 -39 3 -49 1 -41 -8z"/>
<path d="M7997 8822 c-22 -25 -21 -44 4 -73 19 -22 22 -23 47 -8 33 18 40 54
16 80 -22 24 -46 24 -67 1z"/>
<path d="M7876 8547 c3 -9 12 -13 21 -10 9 4 14 2 10 -3 -3 -5 6 -10 21 -11
15 0 19 1 9 4 -9 2 -15 8 -13 12 3 4 0 8 -7 8 -7 0 -20 4 -30 8 -13 5 -16 3
-11 -8z"/>
<path d="M3038 9139 c-35 -34 -38 -43 -38 -93 0 -51 2 -57 30 -71 43 -22 63
-18 82 15 l17 30 -34 0 c-32 0 -35 3 -35 29 0 16 7 34 15 41 8 7 15 9 15 5 0
-4 7 -2 16 5 9 8 14 25 12 44 -4 44 -34 42 -80 -5z"/>
<path d="M3141 9171 c-11 -7 -10 -15 4 -45 19 -40 51 -54 85 -36 22 12 21 12
-17 51 -40 40 -49 44 -72 30z"/>
<path d="M3477 9140 c-35 -33 -38 -40 -35 -81 4 -53 17 -56 40 -9 12 24 28 38
48 43 25 6 30 13 30 37 0 22 4 28 16 23 8 -3 13 -11 11 -17 -3 -7 6 -22 19
-35 18 -18 30 -21 54 -16 38 8 38 20 -2 58 -28 25 -41 30 -88 32 -50 1 -58 -2
-93 -35z"/>
<path d="M9102 9113 c3 -66 4 -68 31 -71 l27 -3 0 70 0 71 -30 0 -31 0 3 -67z"/>
<path d="M3916 9134 c-6 -28 -14 -38 -42 -50 -42 -17 -46 -50 -10 -83 14 -13
29 -35 36 -50 9 -22 16 -27 38 -24 36 5 48 -5 57 -44 l7 -33 -65 0 -66 0 -21
-57 c-12 -32 -33 -98 -46 -148 -24 -90 -24 -91 -24 -628 0 -589 -1 -579 59
-630 30 -25 40 -27 118 -27 70 0 90 4 114 21 66 47 64 27 64 629 l0 545 -34
115 c-18 63 -49 147 -68 187 -38 79 -38 92 7 140 42 45 39 71 -10 91 -35 15
-40 21 -40 50 0 30 -2 32 -34 32 -31 0 -34 -3 -40 -36z m36 -394 c-5 -31 -3
-29 -33 -32 -19 -2 -23 1 -21 17 9 48 60 63 54 15z m-12 -145 c0 -8 -4 -15
-10 -15 -5 0 -10 7 -10 15 0 8 5 15 10 15 6 0 10 -7 10 -15z m-37 -66 c12 -12
16 -19 10 -15 -10 6 -13 -82 -13 -423 0 -424 0 -431 -20 -431 -20 0 -20 7 -20
445 0 302 3 445 10 445 6 0 21 -10 33 -21z m152 -129 c3 -5 1 -10 -4 -10 -6 0
-11 5 -11 10 0 6 2 10 4 10 3 0 8 -4 11 -10z m-5 -75 c0 -8 -4 -15 -10 -15 -5
0 -10 7 -10 15 0 8 5 15 10 15 6 0 10 -7 10 -15z m10 -76 c0 -5 -7 -9 -15 -9
-15 0 -20 12 -9 23 8 8 24 -1 24 -14z m-10 -64 c0 -8 -4 -15 -10 -15 -5 0 -10
7 -10 15 0 8 5 15 10 15 6 0 10 -7 10 -15z m10 -69 c0 -3 -4 -8 -10 -11 -5 -3
-10 -1 -10 4 0 6 5 11 10 11 6 0 10 -2 10 -4z m0 -66 c0 -5 -7 -10 -15 -10 -8
0 -15 5 -15 10 0 6 7 10 15 10 8 0 15 -4 15 -10z m-5 -70 c3 -5 -1 -10 -9 -10
-9 0 -16 5 -16 10 0 6 4 10 9 10 6 0 13 -4 16 -10z m5 -75 c0 -8 -4 -15 -10
-15 -5 0 -10 7 -10 15 0 8 5 15 10 15 6 0 10 -7 10 -15z m-10 -69 c0 -3 -4 -8
-10 -11 -5 -3 -10 -1 -10 4 0 6 5 11 10 11 6 0 10 -2 10 -4z m7 -82 c-3 -3
-12 -4 -19 -1 -8 3 -5 6 6 6 11 1 17 -2 13 -5z m-7 -69 c0 -8 -4 -15 -10 -15
-5 0 -10 7 -10 15 0 8 5 15 10 15 6 0 10 -7 10 -15z m-144 -95 c9 0 14 -11 14
-30 0 -34 -20 -42 -21 -7 l0 22 -11 -22 c-16 -34 -28 -28 -28 13 0 29 3 35 16
30 9 -3 22 -6 30 -6z"/>
<path d="M5790 9131 c-193 -62 -330 -198 -392 -389 -28 -88 -30 -230 -4 -320
24 -82 83 -171 160 -246 l61 -59 0 -297 c0 -279 1 -299 19 -319 14 -15 31 -21
61 -21 42 0 42 0 48 -41 6 -43 30 -76 57 -79 8 -1 83 -2 166 -1 136 1 152 3
172 21 16 15 22 33 22 60 0 39 1 40 36 40 36 0 73 14 86 34 5 6 8 146 7 310
l0 299 62 62 c147 148 203 317 164 506 -23 118 -72 208 -160 294 -83 82 -167
130 -262 150 -94 20 -235 18 -303 -4z m321 -79 c173 -61 306 -223 331 -406 23
-159 -31 -297 -162 -419 l-80 -74 0 -71 0 -72 -35 0 -35 0 0 161 0 160 34 45
c45 59 59 104 54 170 -6 65 -41 123 -100 161 -38 26 -51 28 -151 31 -129 4
-179 -10 -228 -65 -81 -92 -81 -196 0 -303 26 -34 26 -38 26 -195 l0 -160 -31
-3 c-30 -3 -31 -1 -38 44 -3 26 -6 61 -6 78 0 26 -9 38 -50 69 -214 160 -251
471 -82 684 71 89 183 158 297 183 59 13 192 4 256 -18z m-37 -404 c51 -23 82
-99 66 -160 -6 -21 -28 -58 -50 -83 l-40 -46 0 -175 0 -174 -99 0 c-81 0 -100
3 -105 16 -3 9 -6 88 -6 178 l0 161 -30 37 c-71 85 -75 162 -14 224 l35 34
109 0 c61 0 120 -5 134 -12z m109 -714 c13 -5 13 -9 0 -32 l-15 -27 -185 2
c-116 1 -182 -1 -178 -7 4 -6 -6 -10 -22 -10 -21 0 -24 3 -14 9 10 6 0 8 -27
4 -43 -6 -44 -5 -44 37 0 11 0 22 1 25 1 7 466 6 484 -1z m7 -162 c0 -5 -3
-12 -7 -16 -5 -4 -8 -13 -8 -19 0 -14 -252 -29 -395 -25 -73 3 -85 6 -88 21
-9 47 -7 47 253 47 135 0 245 -4 245 -8z m-300 -176 l0 -33 -92 -6 c-100 -5
-108 -2 -108 46 l0 27 100 0 100 0 0 -34z m80 -1 c0 -28 -4 -35 -20 -35 -16 0
-20 7 -20 35 0 28 4 35 20 35 16 0 20 -7 20 -35z m-112 -142 c-2 -10 -10 -18
-18 -18 -8 0 -16 8 -18 18 -2 12 3 17 18 17 15 0 20 -5 18 -17z"/>
<path d="M8764 9102 c-53 -29 -293 -264 -314 -308 -44 -89 -20 -135 160 -311
78 -76 149 -141 158 -145 9 -4 46 -7 81 -7 l64 -1 150 148 c82 81 155 159 163
174 8 15 14 52 14 82 0 51 -3 59 -43 103 -90 99 -263 262 -290 272 -41 16
-108 13 -143 -7z m119 -66 c18 -7 42 -24 54 -37 l22 -24 -55 -58 c-31 -31 -59
-57 -63 -57 -4 0 -24 18 -44 39 -20 22 -46 46 -58 55 -22 15 -22 16 -3 37 25
29 75 59 97 59 10 0 32 -6 50 -14z m-166 -167 c26 -28 49 -54 51 -58 1 -4 -15
-28 -37 -52 l-39 -44 -31 35 c-17 19 -31 38 -31 42 0 14 -29 -4 -44 -28 -16
-23 -14 -25 110 -149 69 -69 133 -125 142 -125 18 0 259 236 268 263 5 17 -19
57 -35 57 -3 0 -17 -16 -30 -35 -35 -52 -56 -54 -96 -8 -19 21 -34 43 -35 48
0 6 22 32 48 58 l48 47 59 -61 c33 -34 54 -59 48 -55 -7 4 -13 5 -13 1 0 -3
11 -10 24 -15 13 -5 28 -22 34 -39 15 -41 -13 -80 -157 -225 -112 -111 -119
-116 -159 -116 -39 0 -48 6 -169 121 -71 67 -136 133 -145 148 -28 41 -22 74
21 129 31 39 108 112 118 112 1 0 24 -23 50 -51z m167 -149 c20 -22 36 -45 36
-50 0 -6 -18 -29 -39 -52 l-40 -40 -47 44 -47 45 43 46 c23 26 46 47 50 47 4
0 24 -18 44 -40z"/>
<path d="M8835 8980 c-3 -6 1 -7 9 -4 18 7 21 14 7 14 -6 0 -13 -4 -16 -10z"/>
<path d="M3605 9021 l-30 -7 30 -14 c24 -12 31 -22 33 -53 2 -27 -1 -37 -11
-37 -25 0 -50 -37 -43 -65 9 -34 25 -32 74 11 41 35 42 37 42 100 0 44 -4 64
-12 64 -7 0 -22 2 -33 4 -11 2 -33 1 -50 -3z"/>
<path d="M3170 8994 c40 -35 39 -82 -2 -102 -21 -10 -28 -20 -28 -43 0 -37 23
-39 70 -4 45 33 50 42 50 97 0 73 -4 78 -67 78 l-55 0 32 -26z"/>
<path d="M3486 9001 c-21 -24 -13 -41 18 -41 24 0 61 42 49 54 -13 13 -51 5
-67 -13z"/>
<path d="M3023 8903 c-7 -3 -13 -10 -13 -16 0 -18 66 -67 89 -67 17 0 21 6 21
35 0 30 -4 35 -27 40 -51 11 -58 12 -70 8z"/>
<path d="M3450 8887 c0 -20 64 -67 90 -67 18 0 21 5 18 38 l-3 37 -52 3 c-41
2 -53 0 -53 -11z"/>
<path d="M3188 8717 c-105 -45 -177 -122 -214 -231 -23 -67 -16 -216 13 -271
32 -61 97 -129 142 -150 23 -10 41 -23 41 -28 0 -5 -25 -33 -55 -61 -30 -28
-55 -59 -55 -68 0 -13 -11 -18 -47 -20 -48 -3 -48 -3 -48 -38 0 -35 0 -35 47
-38 l48 -3 2 -217 3 -217 273 -3 272 -2 0 32 c1 18 0 117 0 219 l-1 187 46 6
c36 6 46 12 51 31 9 35 -2 45 -51 45 -39 0 -45 3 -51 25 -3 14 -26 42 -50 61
-52 43 -55 65 -11 93 71 44 125 120 152 215 46 160 -40 348 -194 423 -47 24
-71 28 -156 31 -87 2 -107 0 -157 -21z m82 -51 c0 -17 32 -156 41 -178 16 -39
46 -37 64 5 7 17 19 61 26 97 6 36 13 66 14 68 7 9 83 -35 120 -69 91 -84 117
-227 61 -340 -15 -29 -37 -65 -49 -77 -31 -34 -107 -76 -116 -66 -4 5 -21 44
-37 88 -43 117 -65 114 -110 -14 -16 -48 -33 -80 -41 -80 -25 0 -92 40 -128
75 -60 61 -79 109 -79 200 0 69 4 88 28 132 35 64 65 93 136 132 53 30 70 36
70 27z m260 -970 c0 -124 -3 -227 -7 -229 -5 -3 -93 -7 -198 -8 l-190 -4 -3
220 c-1 121 0 225 2 232 4 10 52 13 201 13 l195 0 0 -224z"/>
<path d="M3115 8386 c-17 -12 -18 -18 -7 -40 8 -18 19 -26 37 -26 31 0 42 23
27 56 -13 27 -30 30 -57 10z"/>
<path d="M3217 7814 c-4 -4 -7 -65 -7 -135 0 -112 2 -129 18 -137 19 -11 199
-8 210 3 4 3 7 66 7 138 l0 132 -111 3 c-60 1 -113 -1 -117 -4z m80 -126 c-2
-13 -4 -3 -4 22 0 25 2 35 4 23 2 -13 2 -33 0 -45z"/>
<path d="M5280 8724 c0 -11 8 -14 27 -12 39 4 42 28 4 28 -21 0 -31 -5 -31
-16z"/>
<path d="M6580 8724 c0 -11 8 -14 27 -12 39 4 42 28 4 28 -21 0 -31 -5 -31
-16z"/>
<path d="M2218 8632 c-19 -4 -22 -19 -12 -46 8 -20 48 -21 64 -1 24 28 -8 57
-52 47z"/>
<path d="M2191 8484 c-25 -20 -31 -34 -31 -64 0 -30 6 -44 31 -64 17 -14 38
-26 47 -26 29 0 81 38 88 65 10 40 -4 74 -39 95 -42 26 -59 25 -96 -6z m73
-50 c7 -19 -10 -44 -31 -44 -19 0 -28 27 -13 45 16 20 36 19 44 -1z"/>
<path d="M9119 8438 c-1 -7 -2 -24 -3 -38 -1 -17 -6 -25 -18 -24 -25 2 -22
-17 7 -44 25 -24 45 -22 45 4 0 17 27 19 33 2 3 -10 7 -10 20 1 21 17 22 37 1
45 -9 3 -14 15 -12 28 2 19 -1 22 -19 20 -13 -2 -23 2 -23 7 0 15 -30 14 -31
-1z"/>
<path d="M6586 8385 c-9 -25 -8 -27 22 -23 16 2 27 9 27 18 0 21 -41 25 -49 5z"/>
<path d="M5290 8380 c-13 -9 -13 -11 0 -20 20 -14 45 -8 45 10 0 18 -25 24
-45 10z"/>
<path d="M7693 8361 c-10 -16 -9 -22 7 -36 28 -25 55 -16 55 20 0 25 -5 31
-25 33 -16 2 -29 -4 -37 -17z"/>
<path d="M8264 8366 c-3 -8 -4 -23 -2 -33 3 -16 18 -18 165 -21 156 -2 162 -2
168 18 14 44 -7 50 -172 50 -125 0 -155 -3 -159 -14z"/>
<path d="M2127 8088 c-147 -138 -461 -442 -1000 -968 -135 -132 -145 -152 -88
-168 14 -4 301 -7 638 -7 l611 0 26 24 26 24 0 629 c0 627 0 628 -21 628 -12
0 -85 -61 -192 -162z m128 -40 c3 -24 5 -258 3 -521 -3 -412 -5 -479 -18 -487
-8 -5 -50 -10 -92 -10 l-78 0 0 39 c0 25 -5 41 -15 45 -29 11 -45 -5 -45 -45
0 -32 -3 -39 -20 -39 -17 0 -20 7 -20 40 0 38 -2 40 -30 40 -28 0 -30 -2 -30
-40 0 -54 -27 -56 -32 -2 -2 30 -7 38 -27 40 -29 4 -41 -12 -41 -55 0 -35 -14
-44 -24 -17 -3 9 -6 29 -6 45 0 26 -4 29 -30 29 -28 0 -30 -2 -30 -39 0 -24
-5 -41 -14 -44 -20 -8 -26 2 -26 45 0 36 -2 38 -30 38 -28 0 -30 -2 -30 -39 0
-25 -5 -41 -15 -45 -12 -4 -15 4 -15 39 0 43 -1 45 -30 45 -28 0 -30 -2 -30
-40 0 -36 -2 -40 -25 -40 -22 0 -25 4 -25 35 0 25 -6 37 -21 46 -26 14 -37 4
-41 -41 l-3 -35 -60 0 -60 0 -3 37 c-2 27 -9 39 -24 44 -25 8 -38 -10 -38 -53
0 -32 -1 -33 -41 -33 l-42 0 89 89 89 90 19 -40 c22 -43 49 -51 66 -20 14 27
13 31 -7 31 -20 0 -53 28 -53 45 0 7 9 20 20 30 20 18 21 18 45 -5 27 -25 32
-16 14 24 -9 20 -9 29 1 41 17 21 27 19 57 -11 36 -36 56 -16 25 26 -26 34
-27 43 -9 59 11 8 21 5 42 -13 15 -13 34 -22 42 -19 18 7 17 16 -7 46 -11 14
-20 32 -20 41 0 22 33 20 55 -4 36 -40 48 -17 15 30 -19 26 -19 28 -2 43 17
15 20 15 41 1 28 -20 34 -14 21 21 -7 20 -7 31 1 41 17 21 25 17 50 -22 l22
-37 18 22 c17 20 16 22 -14 52 l-31 32 23 18 c29 24 36 24 62 -2 28 -28 37
-15 15 21 -30 51 5 69 51 26 25 -24 53 -25 53 -3 0 6 -12 23 -26 38 -22 23
-24 30 -14 49 l12 22 28 -27 c19 -18 35 -25 46 -21 15 6 14 10 -9 34 -15 16
-27 33 -27 40 0 15 31 31 49 24 10 -3 12 0 7 13 -7 20 9 45 30 45 7 0 21 -13
31 -30 19 -33 40 -39 50 -14 4 10 -4 25 -21 41 -15 14 -25 30 -23 36 6 20 36
19 59 -2 12 -12 28 -21 35 -21 20 0 16 35 -7 55 -23 21 -25 38 -7 54 11 8 19
5 37 -14 21 -22 50 -34 50 -20 0 3 -10 19 -22 35 -21 29 -21 30 -3 50 26 29
33 25 40 -22z"/>
<path d="M1960 7553 c-320 -304 -356 -341 -342 -355 10 -10 72 -14 243 -16
242 -4 282 1 292 38 3 11 2 123 -1 250 -4 202 -7 230 -21 230 -9 0 -86 -67
-171 -147z m120 -153 l0 -140 -157 0 c-154 0 -157 0 -138 19 11 10 78 73 148
140 70 66 132 121 137 121 6 0 10 -58 10 -140z"/>
<path d="M2162 7098 c3 -29 6 -33 33 -33 27 0 30 3 30 30 0 27 -4 30 -33 33
-32 3 -33 2 -30 -30z"/>
<path d="M7693 8212 c-13 -2 -31 -13 -40 -26 -16 -20 -18 -53 -18 -383 l0
-361 24 -26 24 -26 744 0 743 0 32 29 33 29 3 346 c3 371 1 390 -49 416 -14 8
-236 10 -747 8 -400 -1 -737 -4 -749 -6z m1046 -72 c225 0 411 -3 413 -7 2 -5
2 -83 0 -175 l-3 -168 -409 0 -410 0 0 153 c0 135 -3 155 -20 177 -25 32 -25
44 -1 30 13 -6 166 -10 430 -10z m-501 -224 c2 -153 -1 -201 -10 -208 -7 -4
-122 -8 -255 -8 -229 0 -243 1 -253 19 -6 12 -10 98 -10 211 l0 190 263 -2
262 -3 3 -199z m914 -318 c-2 -62 -5 -114 -6 -115 0 -1 -13 -4 -29 -8 l-27 -7
0 56 c0 53 -1 56 -25 56 -23 0 -25 -3 -25 -50 0 -50 0 -50 -32 -50 -33 0 -33
1 -33 47 0 45 -2 48 -27 51 -27 3 -28 2 -28 -46 0 -45 -2 -50 -25 -54 -24 -5
-25 -3 -25 48 0 51 -1 54 -25 54 -24 0 -25 -3 -25 -56 0 -54 -1 -55 -27 -52
-26 3 -27 5 -24 56 l2 52 -30 0 c-31 0 -31 0 -31 -56 0 -54 0 -55 -27 -52 -26
3 -28 7 -31 56 -3 48 -5 52 -28 52 -22 0 -24 -3 -24 -52 0 -52 -1 -53 -30 -54
-30 -1 -30 -1 -30 52 0 51 -2 54 -24 54 -23 0 -25 -4 -28 -52 -3 -46 -6 -53
-25 -56 -22 -3 -23 0 -23 52 0 53 -1 56 -24 56 -23 0 -25 -4 -28 -52 -3 -49
-5 -53 -30 -56 -28 -3 -28 -2 -28 52 0 49 -2 56 -20 56 -33 0 -35 -3 -32 -57
3 -53 2 -53 -28 -53 -30 0 -30 1 -30 53 0 62 -2 66 -35 59 -23 -4 -25 -9 -25
-59 0 -53 0 -54 -27 -51 -26 3 -28 6 -28 53 0 47 -2 50 -27 53 -28 3 -28 2
-28 -51 0 -51 -1 -54 -25 -54 -24 0 -25 3 -25 53 0 54 0 54 -31 54 -30 0 -30
-1 -29 -42 3 -65 2 -68 -25 -68 -24 0 -24 2 -19 55 l6 55 -31 0 c-31 0 -31 0
-31 -55 0 -52 -1 -55 -25 -55 -20 0 -25 5 -25 24 0 52 -12 86 -31 86 -16 0
-19 -8 -19 -55 0 -40 -4 -55 -14 -55 -17 0 -22 19 -25 98 l-2 62 286 0 c178 0
294 4 306 10 10 6 19 21 19 34 0 12 3 26 7 29 3 4 194 7 422 7 l416 0 -3 -112z"/>
<path d="M8421 8011 c-26 -26 -27 -63 -2 -85 26 -24 62 -17 81 17 13 24 13 30
0 55 -20 34 -53 39 -79 13z"/>
<path d="M8572 8014 c-42 -29 -18 -104 35 -104 45 0 65 79 28 106 -24 18 -36
18 -63 -2z"/>
<path d="M8711 8004 c-27 -34 -26 -48 1 -74 40 -37 76 -23 85 35 5 30 2 41
-12 51 -28 21 -51 17 -74 -12z"/>
<path d="M8856 8008 c-9 -12 -16 -29 -16 -38 0 -45 59 -77 88 -48 20 20 15 86
-7 98 -30 16 -48 12 -65 -12z"/>
<path d="M9020 8020 c-35 -8 -48 -51 -26 -84 30 -47 96 -22 96 35 0 43 -25 61
-70 49z"/>
<path d="M7953 8022 l-143 -3 0 -119 0 -120 160 0 161 0 -3 122 c-2 99 -6 121
-18 122 -8 1 -79 0 -157 -2z"/>
<path d="M5280 8154 l-53 -56 7 -55 c4 -31 9 -60 12 -64 3 -5 48 -9 99 -9 90
0 96 1 127 29 28 25 30 31 19 45 -17 21 -29 20 -83 -4 -59 -26 -107 -13 -108
27 0 7 16 30 35 52 40 44 42 52 17 75 -18 15 -22 13 -72 -40z"/>
<path d="M6593 8188 c-15 -17 -19 -32 -16 -59 4 -31 0 -39 -28 -63 -28 -24
-39 -27 -76 -22 -25 3 -45 1 -49 -5 -10 -17 17 -59 43 -65 37 -10 108 23 147
67 33 35 36 44 36 98 0 44 -4 60 -16 65 -21 8 -18 9 -41 -16z"/>
<path d="M1074 8061 c-60 -36 -81 -127 -44 -188 69 -114 253 -63 253 71 0 103
-121 171 -209 117z m100 -64 c9 -15 7 -22 -11 -34 -13 -9 -23 -20 -23 -25 0
-6 7 -5 15 2 11 9 15 9 15 1 0 -7 -14 -18 -30 -25 -17 -7 -29 -14 -28 -17 2
-3 -5 4 -14 14 -24 26 -23 62 3 88 24 24 57 22 73 -4z"/>
<path d="M1535 8061 c-52 -23 -78 -63 -78 -117 0 -132 175 -183 243 -71 42 68
17 156 -53 188 -52 23 -62 23 -112 0z m33 -91 c-3 -16 -1 -30 3 -30 5 0 6 -7
3 -15 -4 -10 0 -15 11 -15 9 0 14 3 12 8 -3 4 1 13 9 20 12 11 15 10 20 -3 15
-37 -43 -63 -75 -33 -23 21 -25 35 -11 72 13 36 33 33 28 -4z"/>
<path d="M5230 7786 c0 -53 6 -56 141 -56 l97 0 4 46 c2 25 1 47 -1 50 -2 2
-58 4 -123 4 l-118 0 0 -44z"/>
<path d="M1390 7761 c0 -41 -73 -57 -84 -18 -6 19 -8 20 -19 6 -6 -8 -20 -18
-29 -22 -26 -9 -22 -23 13 -48 26 -18 33 -19 40 -8 5 8 9 17 9 22 0 12 45 8
58 -5 7 -7 12 -20 12 -30 0 -26 28 -22 32 4 2 14 12 24 27 28 33 8 38 28 9 35
-13 3 -28 16 -33 27 -13 29 -35 35 -35 9z"/>
<path d="M6548 7683 c12 -2 32 -2 45 0 12 2 2 4 -23 4 -25 0 -35 -2 -22 -4z"/>
<path d="M6630 7683 c0 -5 5 -15 10 -23 8 -12 10 -11 10 8 0 12 -4 22 -10 22
-5 0 -10 -3 -10 -7z"/>
<path d="M4353 7656 c-76 -35 -105 -139 -61 -218 41 -72 123 -96 197 -58 102
52 113 194 20 261 -39 27 -112 35 -156 15z m108 -69 c42 -32 49 -81 18 -121
-45 -57 -139 -19 -139 56 0 58 76 99 121 65z"/>
<path d="M1115 7620 c-64 -14 -92 -43 -109 -113 -9 -36 23 -110 58 -132 62
-41 137 -27 190 35 73 87 -25 235 -139 210z m46 -73 c-1 -4 -1 -11 -1 -15 0
-7 -63 -42 -75 -42 -13 0 -3 42 15 60 14 14 26 17 41 12 11 -4 20 -11 20 -15z"/>
<path d="M5349 7557 c-29 -19 -34 -29 -37 -69 -3 -40 1 -49 24 -67 84 -66 193
44 122 122 -34 37 -69 41 -109 14z m71 -61 c0 -22 -16 -36 -41 -36 -10 0 -12
43 -2 53 3 4 15 7 25 7 12 0 18 -7 18 -24z"/>
<path d="M6582 7540 c0 -14 2 -19 5 -12 2 6 2 18 0 25 -3 6 -5 1 -5 -13z"/>
<path d="M7201 7273 c-53 -44 -24 -133 43 -133 69 0 101 76 51 125 -28 29 -64
32 -94 8z m68 -37 c9 -11 10 -20 1 -35 -12 -23 -12 -23 -34 -15 -16 6 -22 45
-9 57 11 11 30 8 42 -7z"/>
<path d="M8227 7262 c-23 -25 -21 -38 5 -56 20 -14 24 -14 40 1 23 20 23 36 0
56 -23 21 -25 21 -45 -1z"/>
<path d="M7832 7230 l-32 -38 36 -36 c20 -20 39 -36 43 -36 4 0 15 14 24 30
10 17 22 30 28 30 5 0 9 5 9 10 0 12 -60 80 -69 79 -3 0 -21 -18 -39 -39z"/>
<path d="M8997 7242 c-22 -24 -21 -35 3 -57 19 -17 21 -17 43 1 12 10 24 20
25 21 8 4 -33 52 -44 53 -6 0 -18 -8 -27 -18z"/>
<path d="M7484 7231 c-41 -25 -74 -72 -81 -116 -11 -70 47 -165 113 -181 24
-6 24 -7 24 -135 l0 -129 -54 -24 c-72 -32 -126 -83 -161 -153 -25 -49 -30
-69 -29 -133 0 -123 44 -198 165 -280 88 -61 89 -64 89 -255 l0 -165 -100 0
-100 0 0 54 c0 31 12 94 30 151 35 115 36 117 10 140 -21 19 -50 14 -50 -9 0
-8 -16 -62 -36 -121 -36 -107 -37 -109 -31 -234 3 -81 11 -142 21 -171 15 -40
17 -115 16 -725 0 -650 1 -681 19 -711 34 -56 68 -64 270 -64 212 0 245 10
281 80 20 39 20 56 20 715 -1 505 2 686 11 717 8 25 12 97 12 169 -1 115 -3
133 -32 210 -17 46 -35 103 -41 127 -12 48 -27 52 -54 15 -18 -25 -18 -28 -2
-100 10 -40 24 -87 32 -102 8 -16 15 -53 17 -82 l2 -54 -108 -3 -108 -3 3 160
3 159 101 96 c125 117 148 161 148 281 1 159 -82 262 -251 311 -10 2 -13 39
-13 136 l0 133 36 29 c41 32 64 79 64 129 0 49 -39 117 -80 138 -45 25 -116
24 -156 0z m135 -80 c47 -44 38 -107 -19 -136 -44 -23 -86 -11 -111 28 -27 44
-24 74 10 108 39 38 79 38 120 0z m-79 -628 c0 -79 8 -96 41 -91 33 4 51 43
46 106 -4 59 0 62 57 29 28 -16 48 -39 70 -81 27 -52 31 -70 31 -136 0 -57 -5
-84 -21 -110 -24 -43 -99 -95 -147 -103 -84 -13 -174 37 -220 124 -24 45 -28
63 -25 110 6 79 41 144 102 186 26 18 52 33 57 33 5 0 9 -30 9 -67z m1 -1023
c-2 -47 -4 -86 -6 -88 -1 -1 -24 -3 -50 -4 -44 -2 -50 1 -80 35 -31 35 -62
118 -51 136 3 4 47 7 98 7 l93 -1 -4 -85z m292 80 c15 0 6 -42 -18 -88 -41
-79 -45 -82 -112 -82 -70 0 -73 3 -73 107 0 60 1 62 28 66 15 3 59 3 97 1 39
-2 73 -4 78 -4z m-52 -264 c2 -2 3 -54 1 -115 -3 -100 -5 -111 -22 -111 -11 0
-22 11 -28 29 -15 43 -60 80 -108 87 -77 11 -164 -47 -164 -111 0 -12 -8 -15
-27 -13 l-28 3 -3 118 -3 117 189 0 c104 0 191 -2 193 -4z m-137 -198 c21 -29
22 -60 2 -32 -14 17 -17 18 -42 4 -15 -8 -30 -21 -32 -29 -3 -10 5 -7 23 7 33
26 45 28 45 6 0 -24 -23 -42 -62 -48 -45 -7 -62 11 -53 54 13 57 89 82 119 38z
m-209 -68 c-3 -5 -1 -11 5 -15 5 -3 15 -15 21 -27 8 -16 8 -19 -1 -13 -8 5
-11 3 -8 -6 3 -8 9 -14 14 -14 5 0 26 -13 47 -29 33 -26 43 -28 97 -24 49 4
65 9 91 34 17 16 36 48 42 72 12 46 31 55 41 20 10 -37 7 -962 -3 -978 -8 -11
-43 -14 -178 -16 -92 0 -176 3 -185 8 -17 8 -18 43 -18 507 0 493 0 499 20
494 11 -3 18 -9 15 -13z"/>
<path d="M7467 4802 c-2 -4 -3 -16 -3 -27 1 -17 11 -22 59 -29 44 -7 57 -13
55 -25 -2 -12 -19 -17 -63 -21 -56 -5 -60 -7 -60 -30 0 -24 4 -25 65 -30 49
-4 65 -9 65 -20 0 -12 -15 -16 -67 -18 -68 -3 -68 -3 -68 -32 0 -29 1 -29 62
-32 50 -2 63 -6 66 -20 3 -14 -4 -18 -31 -18 -68 0 -98 -11 -95 -34 3 -18 11
-22 68 -26 51 -4 66 -9 68 -22 3 -15 -5 -18 -52 -19 -86 -2 -92 -5 -81 -38 6
-20 14 -21 121 -21 l114 0 0 30 c0 26 -4 30 -26 30 -33 0 -30 33 4 38 29 4 31
51 2 59 -26 7 -25 16 5 49 14 15 25 31 25 36 0 4 -11 14 -25 20 -30 13 -33 38
-5 38 15 0 20 7 20 29 0 21 -6 32 -20 36 -26 8 -25 21 1 35 14 8 19 19 17 38
l-3 27 -107 2 c-59 2 -109 -1 -111 -5z"/>
<path d="M7507 4253 c-3 -16 -3 -49 0 -75 l6 -48 88 0 89 0 0 75 0 75 -89 0
-89 0 -5 -27z"/>
<path d="M9180 7127 c0 -98 2 -116 17 -121 28 -11 34 8 35 120 l1 109 -26 3
-27 3 0 -114z"/>
<path d="M8451 7210 c-78 -17 -202 -85 -266 -147 -91 -88 -130 -154 -176 -298
-19 -58 -15 -208 6 -280 79 -269 332 -451 601 -432 89 6 210 42 280 83 60 35
187 173 218 237 44 89 69 211 63 297 -17 202 -101 347 -268 461 -94 64 -154
81 -294 85 -66 2 -140 -1 -164 -6z m167 -307 l3 -143 -55 0 c-50 0 -58 -3
-103 -44 l-50 -45 -43 45 c-48 48 -69 54 -87 25 -10 -16 -6 -25 32 -65 l44
-46 -23 -22 c-13 -13 -49 -47 -80 -77 l-55 -55 -17 39 c-25 61 -15 212 19 288
34 75 128 169 203 204 55 25 135 42 184 39 l25 -1 3 -142z m32 -231 c8 -4 15
-14 15 -22 -1 -34 -16 -40 -96 -40 -71 0 -79 2 -79 19 0 36 27 51 88 50 31 0
64 -3 72 -7z m268 -254 c2 -4 -25 -37 -61 -72 -86 -85 -148 -110 -272 -110
-125 0 -189 26 -272 110 -35 34 -63 66 -63 71 0 5 36 44 80 88 l80 79 28 -27
c27 -26 32 -27 135 -27 l107 0 37 34 37 34 81 -85 c44 -47 82 -90 83 -95z"/>
<path d="M3256 7190 c-67 -26 -131 -91 -156 -158 -20 -52 -20 -80 -20 -1481 0
-1407 0 -1430 20 -1495 20 -62 69 -139 114 -178 31 -28 106 -64 156 -78 33 -9
173 -12 509 -11 l463 1 -7 -22 c-37 -118 -30 -185 25 -240 l38 -38 672 0 c734
0 699 -3 744 58 27 35 32 118 12 178 -9 26 -14 50 -11 52 3 3 233 6 513 8 488
2 510 3 564 24 112 41 184 115 224 228 l24 67 0 1432 c0 1410 0 1433 -20 1486
-25 66 -79 130 -134 160 l-41 22 -1820 2 c-1778 2 -1821 2 -1869 -17z m3397
-256 l227 -7 0 -1107 c0 -610 -3 -1115 -6 -1124 -6 -15 -171 -16 -1770 -16
l-1764 0 0 1123 c0 618 2 1126 4 1128 8 7 3074 11 3309 3z m397 -2658 c0 -201
-12 -248 -81 -318 -84 -84 68 -78 -1860 -78 -1699 0 -1709 0 -1763 21 -39 14
-68 35 -100 71 -65 71 -76 117 -76 310 l0 158 1940 0 1940 0 0 -164z"/>
<path d="M3828 6802 l-348 -2 0 -990 0 -990 1614 0 c888 0 1621 -3 1630 -6 15
-6 16 86 16 990 l0 996 -832 3 c-1066 3 -1645 3 -2080 -1z m1168 -136 c3 -13
4 -35 2 -47 l-3 -24 -456 -3 c-509 -3 -472 -8 -461 66 l4 32 454 0 454 0 6
-24z m-1146 -11 c0 -24 -2 -25 -65 -25 -63 0 -65 1 -65 25 0 24 2 25 65 25 63
0 65 -1 65 -25z m-5 -125 c0 -24 -3 -25 -62 -28 -61 -3 -63 -2 -63 22 0 28 16
35 80 33 41 -2 45 -4 45 -27z m735 -100 l0 -50 -220 0 -220 0 0 43 c0 24 3 47
7 50 3 4 102 7 220 7 l213 0 0 -50z m655 0 l0 -45 -252 -3 -253 -2 0 44 c0 26
5 46 13 49 6 3 120 5 252 4 l240 -2 0 -45z m1233 -3 l3 -47 -533 2 -533 3 -3
33 c-7 67 -45 62 535 60 l528 -3 3 -48z m-2620 -20 l3 -27 -65 0 c-63 0 -66 1
-66 24 0 22 5 25 48 29 72 6 77 4 80 -26z m0 -124 c3 -19 -2 -21 -53 -25 -70
-4 -75 -2 -75 28 0 24 2 25 63 22 55 -3 62 -5 65 -25z m1576 -46 c18 -70 38
-67 -475 -67 l-459 0 -6 25 c-9 35 3 73 23 77 10 2 218 3 463 2 l445 0 9 -37z
m644 34 c9 -5 12 -24 10 -52 l-3 -44 -255 0 -255 0 -3 47 -3 48 223 3 c123 1
234 3 248 5 14 1 31 -2 38 -7z m-1768 -51 l0 -50 -60 0 c-55 0 -60 2 -62 23
-1 12 -2 31 -3 42 -2 32 3 35 66 35 l59 0 0 -50z m-450 -60 l0 -30 -65 0 c-61
0 -65 1 -65 23 0 34 7 37 72 37 58 0 58 0 58 -30z m788 -142 c3 -47 2 -48 -25
-48 -15 0 -137 -2 -270 -4 -133 -2 -246 0 -252 3 -11 7 -15 29 -13 74 l2 27
278 -2 277 -3 3 -47z m490 0 l3 -46 -138 -4 c-195 -4 -193 -5 -193 46 0 24 3
46 7 50 4 3 77 5 162 4 l156 -3 3 -47z m-1278 18 c0 -22 -5 -25 -54 -31 -63
-8 -76 -3 -76 31 0 23 3 24 65 24 62 0 65 -1 65 -24z m-5 -126 c0 -24 -3 -25
-62 -28 -61 -3 -63 -2 -63 22 0 28 16 35 80 33 41 -2 45 -4 45 -27z m563 -102
l3 -48 -165 0 c-182 0 -176 -3 -168 68 l4 32 162 -2 161 -3 3 -47z m1600 0 l3
-48 -725 0 -726 0 -6 26 c-4 14 -2 36 5 50 l11 24 717 -2 718 -3 3 -47z
m-2158 -23 c0 -24 -3 -25 -55 -25 -30 0 -58 0 -62 0 -5 0 -9 11 -11 25 -3 25
-2 25 62 25 64 0 66 -1 66 -25z m-2 -127 c-3 -21 -9 -23 -65 -26 -62 -3 -63
-2 -63 23 0 24 2 25 66 25 62 0 65 -1 62 -22z m830 -11 c6 -5 12 -20 12 -35 0
-58 6 -57 -315 -60 l-295 -3 0 50 c0 39 4 51 18 54 29 8 566 2 580 -6z m554
-11 c10 -14 10 -64 1 -69 -5 -3 -98 -7 -208 -8 l-200 -4 -3 39 c-6 69 -14 66
205 59 126 -4 201 -10 205 -17z m-1387 -101 c0 -18 -8 -20 -62 -23 -62 -3 -63
-2 -63 23 0 25 1 26 63 23 54 -3 62 -5 62 -23z m589 -126 c4 -22 4 -44 1 -50
-4 -5 -33 -9 -66 -9 l-59 0 0 44 0 45 53 4 c28 2 55 4 58 5 4 1 9 -16 13 -39z
m1344 -12 l3 -47 -593 2 -592 3 -10 32 c-18 66 -48 63 603 61 l586 -3 3 -48z
m690 47 l92 -7 0 -37 c0 -31 -4 -39 -22 -44 -33 -8 -431 -7 -445 2 -15 10 -25
54 -15 69 5 8 48 13 127 16 66 1 132 4 146 5 14 1 67 -1 117 -4z m-2620 -31
c-3 -27 -6 -28 -65 -31 l-63 -3 0 31 0 30 66 0 65 0 -3 -27z m-3 -103 c3 -6 3
-19 0 -30 -5 -17 -15 -20 -66 -20 -56 0 -59 1 -59 24 0 15 7 26 18 29 33 9
101 7 107 -3z m829 -66 c8 -3 18 -21 22 -40 12 -65 15 -64 -317 -64 l-299 0 0
50 0 50 283 3 c155 1 285 3 289 5 3 1 13 -1 22 -4z m576 -54 l0 -50 -207 2
-208 3 -3 48 -3 47 210 0 211 0 0 -50z m-1405 -10 c10 -32 -3 -40 -66 -40 -56
0 -59 1 -59 24 0 20 6 25 33 29 74 9 86 7 92 -13z m3 -137 c3 -22 0 -23 -62
-23 -64 0 -66 1 -66 25 0 25 1 26 63 23 56 -3 62 -5 65 -25z m640 -54 l3 -46
-158 -5 c-87 -3 -164 -3 -170 -1 -14 5 -18 84 -6 97 4 3 79 5 167 4 l161 -3 3
-46z"/>
<path d="M4997 4284 c-33 -18 -57 -62 -57 -104 0 -51 28 -97 96 -156 l63 -56
48 41 c89 74 113 112 113 174 0 50 -19 90 -48 103 -33 14 -186 13 -215 -2z"/>
<path d="M8051 7159 l-23 -30 26 -26 26 -26 28 24 c15 13 29 25 31 26 7 4 -44
62 -54 62 -5 0 -21 -14 -34 -30z"/>
<path d="M7847 6988 c-8 -13 -24 -34 -36 -47 l-21 -24 21 -15 c11 -8 29 -28
39 -44 l18 -30 13 23 c7 13 23 34 37 46 l26 22 -38 45 c-20 25 -39 46 -41 46
-1 0 -9 -10 -18 -22z"/>
<path d="M2427 6993 c-4 -3 -7 -19 -7 -35 0 -27 1 -28 55 -28 l55 0 0 35 0 35
-48 0 c-27 0 -52 -3 -55 -7z"/>
<path d="M2570 6965 l0 -35 95 0 c92 0 95 1 101 24 3 14 3 30 -1 35 -3 7 -45
11 -101 11 l-94 0 0 -35z"/>
<path d="M2807 6993 c-4 -3 -7 -19 -7 -35 0 -28 1 -28 60 -28 l60 0 0 35 0 35
-53 0 c-30 0 -57 -3 -60 -7z"/>
<path d="M7284 6897 c-3 -8 -4 -49 -2 -93 3 -78 3 -79 31 -82 l27 -3 0 95 0
96 -25 0 c-14 0 -28 -6 -31 -13z"/>
<path d="M2556 6715 l-131 -135 -82 0 -83 0 0 105 0 105 -357 -2 -358 -3 -3
-784 c-1 -571 1 -787 9 -797 9 -12 128 -14 680 -14 586 0 669 2 683 15 13 14
15 100 14 717 l0 702 -111 113 c-61 62 -115 113 -120 113 -5 0 -69 -61 -141
-135z m255 -90 c9 -17 8 -18 -3 -5 -13 16 -53 16 -43 0 6 -10 -14 -50 -30 -62
-6 -5 -6 -8 2 -8 7 0 16 8 22 17 5 10 12 15 16 11 4 -3 -28 -43 -70 -87 l-77
-81 -64 58 c-35 31 -63 62 -64 67 0 6 43 57 96 113 l97 103 54 -53 c30 -29 59
-62 64 -73z m-629 -12 l3 -98 118 -3 118 -3 -3 -87 -3 -87 -202 0 c-111 0
-205 4 -209 8 -9 8 58 140 88 173 11 12 27 21 36 20 11 -1 18 8 20 26 4 33
-28 47 -55 24 -10 -9 -34 -26 -53 -39 -21 -14 -35 -31 -35 -44 -1 -11 -15 -37
-33 -57 l-32 -37 -28 22 c-15 13 -47 47 -72 76 -25 29 -55 56 -68 59 -23 6
-52 -10 -52 -30 1 -6 48 -58 105 -116 l105 -105 -147 -3 c-95 -2 -150 1 -157
8 -7 7 -10 62 -8 158 l3 147 42 43 41 42 238 0 237 0 3 -97z m667 -555 l1
-148 -252 0 -253 0 -24 43 c-13 23 -54 75 -89 115 -70 77 -101 90 -123 50 -10
-19 -8 -25 22 -49 19 -16 37 -29 42 -29 4 0 7 -19 7 -43 0 -40 -5 -47 -80
-122 l-80 -80 0 178 c0 200 1 203 75 256 l44 32 223 -4 c123 -2 232 -5 243 -8
17 -3 20 2 23 34 2 27 8 37 20 37 10 0 56 41 102 92 l85 92 6 -149 c4 -83 7
-216 8 -297z m-319 296 c0 -24 -4 -44 -10 -44 -5 0 -10 23 -10 51 0 31 4 48
10 44 6 -3 10 -26 10 -51z m-822 -133 c-2 -11 -16 -17 -46 -19 -36 -3 -42 0
-42 17 0 21 20 29 63 23 19 -3 27 -9 25 -21z m-1 -105 c3 -3 3 -12 0 -21 -4
-10 -20 -15 -47 -15 -37 0 -40 2 -40 26 0 25 2 26 41 21 22 -3 43 -8 46 -11z
m1 -133 c3 -21 -1 -23 -42 -23 -38 0 -46 3 -46 18 0 27 10 33 50 30 28 -2 36
-8 38 -25z m659 -220 c373 -399 439 -468 446 -471 16 -8 6 -22 -15 -22 -17 0
-98 76 -291 271 -147 150 -271 269 -275 265 -4 -3 -126 -125 -272 -271 -222
-222 -270 -265 -293 -265 -16 0 -27 4 -25 9 2 5 116 127 253 270 138 144 268
282 290 306 22 24 43 44 47 45 3 0 64 -62 135 -137z m286 47 c-10 -40 -178
-40 -218 0 -19 20 -19 20 102 20 116 0 121 -1 116 -20z m187 0 c0 -18 -7 -20
-60 -20 -33 0 -60 2 -60 4 0 2 -3 11 -6 20 -5 14 4 16 60 16 59 0 66 -2 66
-20z m-1163 -36 c0 -8 -10 -14 -23 -14 -24 0 -39 14 -30 29 9 13 53 1 53 -15z
m10 -119 c0 -10 -11 -15 -34 -15 -23 0 -33 5 -33 15 0 10 10 15 33 15 23 0 34
-5 34 -15z m3 -105 c0 -5 -9 -10 -19 -10 -10 0 -22 -7 -25 -16 -8 -20 -26 -9
-26 17 0 15 7 19 35 19 19 0 35 -4 35 -10z"/>
<path d="M2681 6688 c-11 -29 -6 -38 24 -38 27 0 41 26 24 46 -17 21 -39 17
-48 -8z"/>
<path d="M2614 6588 c-10 -13 -15 -20 -10 -16 5 4 16 2 25 -5 14 -10 14 -10 4
4 -10 12 -10 18 -1 27 7 7 10 12 7 12 -3 0 -14 -10 -25 -22z"/>
<path d="M2496 6081 c-82 -83 -94 -113 -46 -119 20 -2 40 13 98 72 39 41 72
80 72 86 0 12 -28 39 -40 40 -3 0 -41 -35 -84 -79z"/>
<path d="M1040 6790 c-7 -16 -16 -30 -21 -30 -18 0 -9 -22 11 -27 11 -3 20
-14 20 -24 0 -11 7 -19 15 -19 8 0 15 9 15 20 0 13 10 24 28 31 l27 11 -23 11
c-12 6 -25 21 -28 34 -8 32 -29 29 -44 -7z"/>
<path d="M1373 6780 c-28 -34 -28 -36 -3 -43 12 -3 20 -14 20 -26 0 -12 6 -21
15 -21 8 0 15 7 15 15 0 8 9 22 19 32 19 18 19 18 -4 46 -29 33 -34 33 -62 -3z"/>
<path d="M1182 6700 c-23 -50 -67 -162 -98 -248 l-56 -157 -1 -370 -2 -370
100 -202 c55 -112 103 -203 108 -203 8 0 31 48 151 304 l46 99 0 365 0 365
-31 96 c-55 166 -150 403 -166 408 -5 2 -29 -37 -51 -87z m89 -172 c3 -21 2
-38 -3 -38 -4 0 -9 -10 -9 -22 l-2 -23 -4 23 c-2 12 -9 22 -14 22 -6 0 -7 -6
-3 -12 5 -8 0 -7 -11 2 -17 14 -18 13 -13 -7 5 -20 2 -23 -23 -23 -16 0 -29 1
-29 3 0 8 30 100 36 108 3 6 20 9 37 7 28 -3 32 -7 38 -40z m-71 -170 c0 -20
1 -20 13 -5 9 13 18 15 42 8 21 -7 24 -10 10 -10 -16 -1 -17 -3 -6 -10 9 -6
-11 -10 -58 -13 -40 -1 -75 0 -77 3 -1 3 0 15 3 27 4 17 13 22 39 22 28 0 34
-4 34 -22z m65 -118 c4 -6 2 -17 -4 -24 -6 -7 -8 -16 -4 -19 3 -4 2 -7 -3 -7
-6 0 -20 -9 -32 -20 -22 -21 -20 -50 4 -50 12 0 14 -36 14 -205 0 -194 -1
-205 -20 -215 -29 -16 -26 -58 5 -70 52 -20 17 -70 -36 -51 -21 7 -37 7 -49 1
-10 -6 -23 -10 -29 -10 -8 0 -11 106 -11 340 l0 340 79 0 c45 0 83 -5 86 -10z
m83 -328 c3 -271 1 -331 -10 -327 -10 4 -13 72 -13 335 0 216 3 329 10 327 6
-2 11 -126 13 -335z m-168 -416 c0 -11 -19 -15 -25 -6 -3 5 1 10 9 10 9 0 16
-2 16 -4z"/>
<path d="M1152 5900 c0 -14 2 -19 5 -12 2 6 2 18 0 25 -3 6 -5 1 -5 -13z"/>
<path d="M7843 6773 c-20 -7 -15 -41 6 -53 28 -15 39 -13 51 11 19 34 -15 59
-57 42z"/>
<path d="M9064 6186 c-13 -34 0 -51 44 -54 l42 -3 0 -50 0 -49 -138 0 c-105 0
-143 -3 -158 -14 -15 -12 -17 -18 -8 -33 10 -16 29 -18 170 -21 87 -1 169 0
182 3 21 5 22 10 22 108 0 67 -4 107 -12 115 -18 18 -137 16 -144 -2z"/>
<path d="M7988 6169 c-27 -15 -22 -29 26 -84 54 -62 127 -103 206 -116 71 -11
100 -1 100 36 0 23 -3 25 -52 25 -72 0 -144 36 -204 99 -52 56 -51 55 -76 40z"/>
<path d="M8089 5873 c-15 -6 -32 -20 -38 -32 -8 -13 -11 -180 -11 -515 l0
-494 26 -31 26 -31 181 2 180 3 21 28 c18 25 21 43 22 130 0 56 1 130 2 164
l2 63 51 -3 c55 -2 78 14 66 47 -5 12 -20 16 -67 16 l-60 0 0 195 c0 123 4
195 10 195 6 0 10 -35 10 -85 l0 -85 30 0 30 0 0 120 c0 117 0 120 -22 121
-55 3 -53 1 -51 59 3 68 -11 113 -40 128 -31 16 -332 20 -368 5z m253 -499 c1
-240 1 -456 -1 -480 l-3 -44 -102 0 c-66 0 -106 4 -114 12 -9 9 -12 128 -12
473 0 254 3 465 7 468 3 4 55 7 114 7 l107 0 4 -436z"/>
<path d="M8170 5706 c0 -19 6 -24 38 -30 94 -15 132 -3 116 39 -5 11 -24 15
-80 15 -71 0 -74 -1 -74 -24z"/>
<path d="M8176 5614 c-11 -28 3 -34 75 -34 67 0 69 1 69 25 0 24 -2 25 -69 25
-54 0 -70 -3 -75 -16z"/>
<path d="M8167 5534 c-4 -4 -7 -16 -7 -26 0 -15 8 -18 56 -18 52 0 55 1 52 23
-3 19 -10 22 -48 25 -25 2 -49 0 -53 -4z"/>
<path d="M8182 5428 c-29 -29 -14 -38 64 -38 72 0 75 1 72 23 -3 20 -9 22 -63
25 -38 2 -65 -2 -73 -10z"/>
<path d="M8189 5265 c-10 -46 -5 -50 64 -53 l68 -3 -3 28 c-3 27 -5 28 -65 31
-35 2 -63 0 -64 -3z"/>
<path d="M8185 5150 c-10 -11 -16 -23 -13 -26 3 -3 38 -8 77 -11 l71 -6 0 32
0 31 -58 0 c-46 0 -63 -4 -77 -20z"/>
<path d="M8160 5050 c0 -27 3 -31 23 -28 16 2 22 10 22 28 0 18 -6 26 -22 28
-20 3 -23 -1 -23 -28z"/>
<path d="M8164 4966 c-11 -29 1 -51 30 -54 36 -4 50 10 42 42 -5 21 -12 26
-37 26 -17 0 -32 -6 -35 -14z"/>
<path d="M8684 5861 c-51 -22 -54 -39 -54 -279 0 -127 4 -231 10 -242 14 -27
65 -41 125 -34 l52 6 90 -86 c50 -47 98 -86 107 -86 18 0 25 23 28 105 l3 60
61 3 c56 3 62 1 67 -19 7 -27 28 -20 47 17 13 25 15 66 10 271 -5 236 -6 243
-28 265 -22 22 -28 23 -260 25 -130 2 -247 -2 -258 -6z m469 -173 c4 -57 3
-148 -1 -203 l-7 -100 -87 -3 -87 -3 -7 -46 -7 -46 -44 46 -44 47 -85 0 -84 0
0 198 c0 109 3 202 7 205 3 4 104 7 223 7 l218 0 5 -102z"/>
<path d="M8782 5693 l3 -28 157 -2 c90 -1 160 2 163 8 4 5 3 18 0 29 -6 19
-15 20 -166 20 l-160 0 3 -27z"/>
<path d="M8790 5600 l0 -30 125 0 125 0 0 30 0 30 -125 0 -125 0 0 -30z"/>
<path d="M8790 5510 l0 -30 155 0 c143 0 155 1 155 18 0 37 -19 42 -167 42
l-143 0 0 -30z"/>
<path d="M2622 5061 c-29 -10 -67 -31 -84 -47 -56 -53 -58 -67 -58 -377 l0
-283 26 -53 c20 -39 24 -55 15 -64 -6 -6 -11 -23 -11 -38 0 -23 5 -28 28 -31
49 -6 37 -80 -22 -129 -19 -15 -19 -18 -4 -40 8 -14 38 -51 67 -84 l51 -60
-62 -3 c-71 -4 -90 -15 -86 -51 l3 -26 235 -1 c129 0 242 -2 250 -3 8 -1 44
-28 80 -61 l65 -59 -17 -29 c-22 -37 -23 -100 -2 -130 14 -21 22 -22 143 -22
148 0 161 6 161 78 l0 42 60 0 60 0 0 -40 c0 -30 7 -47 24 -65 24 -24 25 -24
175 -18 134 5 151 4 157 -10 8 -21 33 -22 40 -2 5 11 22 15 70 15 72 0 104 20
104 64 0 14 7 31 15 40 14 13 13 19 -6 55 l-21 41 -67 0 c-63 0 -68 -2 -84
-29 -9 -16 -17 -32 -17 -35 0 -3 27 -6 61 -6 52 0 60 -2 55 -16 -3 -9 -6 -22
-6 -30 0 -11 -20 -14 -100 -14 l-100 0 0 35 c0 26 -7 43 -26 60 -30 28 -9 27
-366 29 l-227 1 -94 93 -94 92 -112 0 -112 0 29 43 c17 23 39 53 51 66 22 26
24 34 15 67 -5 19 -10 20 -52 12 -31 -5 -48 -5 -50 2 -7 20 -18 9 -20 -21 -4
-55 -48 -119 -72 -104 -6 4 -25 31 -41 61 -20 35 -39 56 -55 60 -32 8 -30 22
4 26 25 3 27 6 27 53 l0 50 44 3 c52 4 62 -4 70 -55 6 -33 10 -38 31 -35 33 3
35 8 20 36 -22 42 -7 60 45 53 38 -6 45 -4 50 14 4 12 0 30 -10 45 -15 23 -14
26 12 61 l28 36 3 298 c3 285 2 299 -18 338 -26 52 -87 97 -151 110 -63 14
-64 14 -127 -8z m144 -82 c19 -11 40 -31 46 -42 9 -16 13 -104 14 -302 2 -249
0 -283 -15 -301 -27 -34 -56 -44 -121 -44 -57 0 -65 3 -96 34 l-34 34 0 280
c0 154 3 288 6 297 4 9 23 27 43 40 46 32 110 33 157 4z m564 -1414 c0 -25 -1
-25 -90 -25 -89 0 -90 0 -90 25 0 25 1 25 90 25 89 0 90 0 90 -25z m420 0 c0
-25 -1 -25 -80 -25 -79 0 -80 0 -80 25 0 25 1 25 80 25 79 0 80 0 80 -25z"/>
<path d="M2611 4874 c0 -11 3 -14 6 -6 3 7 2 16 -1 19 -3 4 -6 -2 -5 -13z"/>
<path d="M2657 4873 c-4 -3 -7 -23 -7 -44 0 -28 -6 -42 -22 -54 -22 -15 -23
-20 -23 -196 l0 -181 28 -24 c44 -38 144 -29 163 15 4 9 9 89 12 178 4 153 3
164 -18 198 -12 19 -28 35 -36 35 -10 0 -13 7 -8 25 4 15 1 32 -6 40 -12 15
-71 21 -83 8z m71 -321 l3 -122 -26 0 c-15 0 -25 6 -26 15 -6 66 -6 89 -1 156
4 69 6 75 26 74 20 -2 21 -7 24 -123z"/>
<path d="M9058 5048 l-38 -20 0 -68 c0 -38 5 -72 10 -75 6 -4 35 -9 65 -12 48
-5 55 -9 55 -27 0 -27 -48 -53 -57 -30 -6 17 -69 19 -79 2 -8 -13 49 -68 71
-68 8 0 18 7 23 16 7 13 10 14 21 0 11 -13 16 -12 47 6 l34 20 0 118 c0 116 0
118 -26 135 -37 24 -83 25 -126 3z m97 -67 c10 -32 -5 -51 -40 -51 -40 0 -48
10 -39 45 5 20 12 25 39 25 24 0 35 -5 40 -19z"/>
<path d="M8692 5048 c-27 -14 -36 -43 -28 -99 8 -57 21 -69 72 -69 42 0 44 -1
44 -30 0 -20 -5 -30 -15 -30 -8 0 -15 -4 -15 -10 0 -5 -9 -1 -20 10 -21 21
-29 23 -54 14 -25 -10 -19 -38 14 -62 35 -27 46 -27 54 -5 6 15 8 15 16 3 8
-13 13 -13 37 2 27 16 28 21 31 104 l3 87 -29 -6 c-17 -3 -41 -9 -56 -13 -23
-5 -26 -3 -26 18 0 14 8 32 18 41 23 21 32 21 32 3 0 -21 17 -29 46 -22 30 8
31 26 1 54 -26 24 -85 29 -125 10z"/>
<path d="M1144 5026 c-49 -22 -100 -72 -124 -123 -18 -38 -21 -60 -18 -115 5
-84 40 -140 113 -180 l50 -28 510 0 510 0 51 24 c180 84 157 367 -35 425 -59
17 -1016 15 -1057 -3z m766 -102 c0 -32 2 -34 35 -34 33 0 35 2 35 35 0 35 0
35 48 37 151 6 184 -5 230 -72 28 -42 30 -112 2 -157 -38 -63 -34 -63 -522
-67 -244 -2 -476 -1 -517 3 -70 7 -76 9 -106 44 -56 65 -53 137 10 205 l33 37
344 5 c425 6 408 8 408 -36z"/>
<path d="M1217 4859 c-9 -5 -24 -24 -33 -40 -15 -29 -14 -32 11 -65 30 -40 54
-43 98 -11 60 42 61 52 5 95 -45 35 -54 37 -81 21z"/>
<path d="M2092 4850 c-18 -11 -41 -20 -52 -20 -28 0 -38 -45 -15 -70 10 -11
26 -20 36 -20 10 0 21 -4 24 -10 11 -18 61 -11 83 13 29 31 28 72 -3 102 -29
30 -31 30 -73 5z"/>
<path d="M1524 4823 c-14 -2 -24 -14 -27 -29 -6 -35 13 -56 48 -52 26 3 30 8
33 37 3 30 -11 54 -28 49 -3 0 -15 -3 -26 -5z"/>
<path d="M1640 4785 l0 -45 39 0 c44 0 57 18 45 64 -5 22 -12 26 -45 26 l-39
0 0 -45z"/>
<path d="M1782 4783 c3 -36 5 -38 40 -41 29 -3 38 1 43 17 13 41 -3 61 -46 61
l-40 0 3 -37z"/>
<path d="M8367 4650 l-279 -5 -23 -29 c-13 -16 -26 -42 -29 -59 -3 -16 -6
-338 -6 -714 0 -758 -2 -734 64 -774 29 -18 60 -19 534 -19 558 0 551 -1 592
65 20 32 20 48 20 744 0 770 1 753 -53 783 -25 13 -347 17 -820 8z m701 -92
c31 -31 11 -33 -375 -30 -214 1 -398 0 -410 -3 -16 -4 -23 -13 -23 -30 0 -13
5 -27 10 -30 16 -10 11 -40 -10 -65 -20 -23 -20 -34 -18 -625 3 -563 2 -601
-14 -592 -9 6 -19 20 -22 32 -3 11 -6 313 -6 672 0 579 2 653 16 667 13 14 66
16 428 16 307 0 415 -3 424 -12z m-96 -728 c5 -190 7 -359 5 -377 l-2 -32
-250 -2 c-138 -1 -283 -2 -322 -1 l-73 2 0 375 0 375 248 3 c136 1 279 3 317
2 l70 0 7 -345z"/>
<path d="M8568 4005 c-14 -32 5 -57 41 -53 18 2 27 10 29 26 7 50 -49 72 -70
27z"/>
<path d="M8460 3575 c-15 -19 -4 -52 21 -60 38 -12 65 35 37 63 -16 16 -43 15
-58 -3z"/>
<path d="M1094 4416 c-17 -8 -40 -26 -52 -41 l-22 -28 0 -747 0 -747 26 -27
27 -26 607 0 608 0 26 31 26 31 0 747 c0 823 4 773 -64 805 -30 14 -96 16
-593 16 -444 -1 -564 -4 -589 -14z m1164 -601 l2 -530 -448 3 c-398 2 -451 1
-462 -13 -8 -9 -9 -19 -4 -25 5 -4 212 -10 459 -13 l450 -5 3 -36 3 -35 -123
-3 c-119 -3 -123 -4 -126 -25 -3 -23 -2 -23 110 -23 62 0 119 -4 126 -9 8 -5
12 -22 10 -42 l-3 -34 -430 0 -429 0 -7 -25 c-7 -24 -7 -24 -8 -2 -1 12 -5 22
-10 22 -5 0 -9 -16 -8 -35 1 -22 6 -33 14 -31 6 3 13 2 16 0 2 -3 199 -5 437
-4 l432 0 -7 -27 c-3 -16 -8 -29 -9 -31 -2 -1 -262 -4 -577 -5 l-574 -2 -3 23
c-3 19 1 22 32 22 33 0 36 2 36 30 0 27 -3 30 -30 30 -20 0 -30 5 -30 15 0 10
11 15 35 15 31 0 35 3 35 25 0 22 -4 25 -35 25 -29 0 -35 4 -35 21 0 19 5 20
67 18 71 -3 93 10 80 45 -5 13 -21 16 -82 16 -60 0 -75 3 -75 15 0 10 10 15
34 15 19 0 36 6 39 13 8 24 -6 37 -40 37 -27 0 -34 4 -31 18 2 11 15 19 41 22
21 3 38 8 37 13 0 4 0 14 0 22 0 12 -8 14 -40 9 -36 -6 -40 -4 -40 14 0 25 41
36 111 30 43 -3 44 -2 44 27 l0 30 -69 -3 c-49 -3 -71 0 -77 10 -14 22 -10 27
24 30 24 2 33 8 35 26 3 19 -1 22 -32 22 -29 0 -36 4 -36 20 0 16 7 20 34 20
33 0 46 13 46 47 0 11 -9 14 -37 11 -30 -2 -38 1 -41 15 -3 15 6 17 72 17 l76
0 0 30 0 30 -76 0 c-66 0 -75 2 -72 18 2 11 14 18 36 20 42 4 41 35 -1 40 -41
5 -33 29 13 37 34 6 40 10 40 32 0 24 -2 25 -40 19 -35 -5 -40 -4 -40 13 0 16
9 19 74 23 41 2 78 6 81 10 4 4 4 16 0 27 -6 19 -14 21 -87 21 -59 0 -79 3
-76 13 3 6 21 13 41 15 29 3 37 7 37 23 0 15 -7 19 -34 19 -21 0 -36 6 -40 15
-4 11 1 15 17 15 41 0 67 12 67 31 0 14 -9 19 -42 21 -30 2 -43 8 -43 18 0 12
18 16 80 20 73 5 80 7 83 27 3 18 -3 23 -30 27 -18 4 -53 5 -78 4 l-45 -3 -3
53 c-2 31 2 60 9 68 10 12 97 14 578 12 l566 -3 3 -530z"/>
<path d="M1132 4273 c2 -22 8 -28 28 -28 20 0 25 5 25 25 0 20 -6 26 -28 28
-26 3 -28 1 -25 -25z"/>
<path d="M1310 4180 c0 -12 9 -22 24 -26 31 -7 46 1 46 27 0 15 -7 19 -35 19
-28 0 -35 -4 -35 -20z"/>
<path d="M1364 4056 c-18 -14 -19 -31 -22 -330 -3 -306 -2 -316 18 -336 19
-19 31 -20 348 -20 180 0 337 3 350 6 l22 6 0 328 c0 285 -2 331 -16 344 -13
14 -59 16 -348 16 -271 0 -336 -3 -352 -14z m616 -69 c0 -5 -260 -262 -268
-265 -8 -2 -272 251 -272 262 0 3 122 6 270 6 149 0 270 -1 270 -3z m18 -315
c-2 -110 -6 -203 -10 -207 -3 -4 -17 -1 -30 6 -29 15 -190 178 -186 188 9 23
214 229 221 222 5 -5 7 -98 5 -209z m-363 3 c111 -113 200 -207 199 -208 -1
-1 -95 -1 -208 1 l-206 3 0 204 c0 113 3 205 8 205 4 0 97 -92 207 -205z"/>
<path d="M1542 3911 c4 -13 18 -16 19 -4 0 4 -5 9 -11 12 -7 2 -11 -2 -8 -8z"/>
<path d="M1575 3890 c-3 -5 -1 -10 4 -10 6 0 11 5 11 10 0 6 -2 10 -4 10 -3 0
-8 -4 -11 -10z"/>
<path d="M1340 3151 c-15 -29 -13 -39 11 -52 44 -23 91 25 57 59 -18 18 -56
14 -68 -7z"/>
<path d="M1231 2983 c1 -22 3 -29 6 -18 8 33 26 44 21 12 -5 -24 -2 -28 16
-25 16 2 22 11 24 36 3 31 2 32 -32 32 -35 0 -36 -1 -35 -37z"/>
<path d="M1688 2923 c7 -3 16 -2 19 1 4 3 -2 6 -13 5 -11 0 -14 -3 -6 -6z"/>
<path d="M2795 4059 c-9 -14 -2 -20 14 -10 8 6 9 11 3 15 -6 3 -14 1 -17 -5z"/>
<path d="M7390 3865 c0 -11 -13 -15 -53 -15 -63 0 -92 -18 -169 -106 -28 -33
-60 -65 -72 -72 -14 -8 -65 -12 -161 -11 -223 1 -213 3 -246 -32 -31 -33 -37
-68 -19 -115 19 -49 35 -54 159 -52 134 2 151 11 151 85 l0 43 69 0 c80 0 94
8 176 109 56 69 100 90 148 72 15 -6 27 -16 27 -22 0 -8 6 -7 18 3 9 8 24 18
33 21 16 5 32 54 22 69 -2 5 -15 8 -29 8 -14 0 -27 7 -30 15 -4 8 -10 15 -15
15 -5 0 -9 -7 -9 -15z m-485 -300 c0 -18 -8 -20 -79 -23 -83 -3 -101 3 -90 32
5 14 19 16 88 14 73 -3 81 -5 81 -23z"/>
<path d="M7703 3865 c-37 -16 -41 -23 -106 -217 l-47 -137 0 -620 0 -621 79
-158 c43 -86 88 -168 99 -182 l21 -25 76 160 c42 88 80 168 85 177 6 11 10
266 10 647 l0 629 -54 159 c-40 116 -62 164 -81 181 -30 25 -38 26 -82 7z m48
-135 c28 0 23 -12 -11 -32 -28 -16 -30 -21 -30 -76 0 -61 -7 -72 -46 -72 -18
0 -18 20 2 89 26 91 33 104 50 97 9 -3 24 -6 35 -6z m89 -583 l0 -333 -55 6
-55 6 1 -45 c0 -33 3 -40 8 -26 9 21 7 25 25 -70 3 -16 3 -24 0 -17 -3 6 -10
9 -16 6 -7 -5 -9 3 -6 20 3 15 2 24 -2 19 -5 -4 -10 -19 -12 -33 -2 -14 -10
-25 -18 -25 -12 0 -16 -17 -18 -77 -2 -43 -7 -78 -12 -78 -19 0 -10 -55 13
-83 19 -24 27 -27 55 -21 22 4 38 16 47 35 17 33 19 65 5 74 -5 3 -10 42 -10
86 0 46 4 79 10 79 6 0 10 11 10 25 0 14 4 25 9 25 5 0 12 10 14 23 2 12 5
-77 6 -199 l1 -221 -102 -6 c-57 -3 -106 -3 -110 -1 -5 3 -8 266 -8 585 l0
579 110 0 110 0 0 -333z m-38 -442 c-2 -15 -8 -23 -13 -18 -10 10 0 55 11 48
4 -2 5 -16 2 -30z m-114 -506 l-5 -24 -10 25 c-12 28 -6 47 9 32 5 -5 8 -20 6
-33z"/>
<path d="M7699 3363 c-25 -57 -25 -62 -23 -256 2 -109 6 -202 10 -208 21 -34
91 -22 114 20 6 12 10 97 10 208 -1 165 -3 193 -20 228 -11 22 -19 46 -20 53
0 6 -10 12 -23 12 -17 0 -28 -12 -48 -57z"/>
<path d="M7791 3374 c0 -11 3 -14 6 -6 3 7 2 16 -1 19 -3 4 -6 -2 -5 -13z"/>
<path d="M2607 3660 c-44 -8 -111 -58 -115 -86 -1 -10 6 -24 17 -31 16 -10 25
-8 56 17 63 50 113 51 188 3 22 -14 45 -22 53 -19 50 19 1 87 -80 111 -54 16
-61 16 -119 5z"/>
<path d="M6354 3660 c-75 -5 -96 -16 -120 -61 -22 -43 -17 -77 16 -110 29 -29
31 -30 127 -28 125 2 132 4 149 45 20 48 17 89 -8 119 -28 32 -72 42 -164 35z
m111 -91 c4 -11 5 -22 3 -24 -2 -2 -39 -5 -83 -6 -80 -2 -80 -2 -83 24 l-3 27
80 0 c72 0 80 -2 86 -21z"/>
<path d="M7277 3612 c-15 -16 -15 -20 -1 -40 18 -27 36 -28 57 -4 21 23 21 27
1 46 -20 21 -37 20 -57 -2z"/>
<path d="M2934 3599 c-19 -21 -19 -21 11 -45 27 -21 31 -22 47 -7 23 20 23 36
0 56 -24 22 -35 21 -58 -4z"/>
<path d="M6086 3601 c-22 -24 -20 -44 5 -60 19 -11 24 -10 42 7 22 23 18 45
-11 61 -15 8 -23 6 -36 -8z"/>
<path d="M2622 3548 c-38 -38 37 -68 83 -34 16 12 17 16 6 30 -16 19 -72 21
-89 4z"/>
<path d="M2797 3492 c-22 -24 -21 -35 2 -56 15 -14 24 -15 40 -6 27 14 28 56
2 70 -25 13 -25 13 -44 -8z"/>
<path d="M7136 3464 c-4 -15 -3 -31 1 -35 5 -5 51 -9 103 -11 l95 -3 3 -211
c2 -170 0 -216 -12 -239 -15 -28 -9 -56 14 -70 7 -4 8 -44 4 -112 l-7 -104 34
3 34 3 0 100 c0 62 5 108 13 122 9 16 9 29 2 49 -7 17 -10 116 -9 249 1 237
-2 253 -48 274 -13 6 -68 11 -122 11 -98 0 -99 0 -105 -26z"/>
<path d="M2438 3454 c-11 -24 -10 -28 12 -46 24 -20 24 -20 43 3 26 32 19 63
-15 67 -22 3 -30 -2 -40 -24z"/>
<path d="M2941 3446 l-22 -24 27 -27 27 -27 25 26 26 25 -24 26 c-29 31 -31
31 -59 1z"/>
<path d="M2578 3450 c-18 -11 -40 -72 -92 -260 l-35 -125 2 -790 2 -790 28
-47 c49 -84 120 -116 215 -97 57 12 103 44 130 93 18 33 16 -30 37 1256 l6
385 -56 170 c-31 94 -63 180 -71 193 -28 43 -74 22 -74 -35 0 -18 -9 -50 -21
-72 -11 -22 -33 -84 -48 -138 -19 -71 -31 -99 -44 -101 -23 -5 -22 10 9 114
57 192 66 236 52 245 -16 11 -19 11 -40 -1z m37 -300 c-4 -17 -9 -29 -12 -26
-3 2 -2 19 2 36 4 17 9 29 12 26 3 -2 2 -19 -2 -36z m154 -261 c0 -94 -4 -136
-14 -145 -7 -7 -15 -11 -18 -8 -2 3 -7 -2 -11 -11 -4 -11 -2 -14 6 -9 7 4 8 3
4 -4 -4 -7 -33 -12 -70 -12 -58 0 -86 -11 -86 -33 0 -5 7 -6 16 -3 13 5 14 4
5 -7 -9 -12 3 -14 72 -13 l82 1 0 37 c0 20 3 40 8 44 4 4 7 -16 7 -45 0 -37
-4 -53 -15 -57 -8 -4 -15 -10 -15 -15 0 -4 6 -6 13 -3 8 3 13 -5 15 -23 1 -19
-1 -24 -7 -15 -6 10 -33 14 -92 14 -64 0 -84 -3 -84 -14 -1 -27 24 -38 89 -38
50 0 66 -3 66 -14 0 -8 -6 -17 -12 -19 -7 -3 -3 -6 10 -6 15 -1 22 -7 22 -20
0 -22 -54 -32 -135 -24 -33 4 -55 1 -59 -6 -4 -6 -16 -11 -27 -11 -18 0 -19
10 -19 295 l0 295 125 0 125 0 -1 -131z m1 -363 c0 -3 -4 -8 -10 -11 -5 -3
-10 -1 -10 4 0 6 5 11 10 11 6 0 10 -2 10 -4z m-23 -174 c7 -4 10 -17 7 -29
-6 -22 -51 -37 -79 -27 -8 4 -15 1 -15 -5 0 -27 -96 0 -105 30 -4 10 -3 23 0
29 7 12 174 13 192 2z m-64 -138 c98 -9 103 -27 10 -44 -81 -14 -103 -25 -103
-51 0 -11 5 -17 10 -14 6 3 10 -1 10 -9 0 -9 -5 -16 -11 -16 -5 0 -7 -5 -3
-11 3 -6 0 -15 -7 -20 -12 -7 -11 -9 1 -9 9 0 23 9 33 20 9 11 12 20 7 20 -6
0 -10 6 -10 13 0 9 16 11 62 7 56 -4 63 -8 66 -27 3 -19 -1 -23 -25 -23 -15 0
-45 -3 -65 -6 -30 -5 -38 -11 -38 -28 0 -18 -2 -19 -11 -6 -9 13 -10 13 -5 -2
3 -10 -1 -18 -12 -21 -9 -3 6 -2 35 1 72 7 125 -5 121 -26 -3 -18 -73 -35
-118 -29 l-25 3 24 10 c24 11 24 11 3 16 -23 6 -40 -13 -36 -39 1 -7 2 -21 3
-30 1 -14 11 -18 49 -19 74 -2 91 -6 89 -26 -1 -12 -15 -20 -50 -28 -26 -5
-57 -10 -69 -10 -17 0 -18 -3 -8 -15 6 -8 9 -24 5 -37 -4 -16 -3 -19 3 -9 7
10 24 12 71 6 49 -6 61 -10 61 -25 0 -13 -11 -19 -46 -24 -70 -9 -84 -8 -84 9
0 13 -4 12 -22 -4 -19 -19 -20 -23 -8 -45 12 -23 20 -25 89 -28 42 -2 75 -6
74 -10 -2 -5 -6 -8 -10 -9 -5 0 -13 -5 -20 -11 -7 -5 -55 -12 -107 -15 l-96
-6 0 317 0 316 43 0 c24 0 78 -3 120 -6z m-66 -316 c-3 -8 -6 -5 -6 6 -1 11 2
17 5 13 3 -3 4 -12 1 -19z m13 -408 c0 -5 -6 -11 -12 -13 -10 -4 -9 -8 2 -16
10 -7 12 -13 5 -20 -8 -8 -18 -6 -33 5 -26 18 -28 39 -5 52 18 10 43 5 43 -8z"/>
<path d="M2600 2928 c0 -5 4 -8 9 -8 5 0 11 -10 13 -22 3 -20 10 -23 58 -26
58 -3 80 11 80 51 0 17 -7 18 -80 15 -44 -2 -80 -6 -80 -10z"/>
<path d="M2593 2815 c-6 -14 -7 -25 -2 -25 5 0 9 -7 9 -15 0 -13 13 -15 77
-13 76 3 78 4 78 28 0 24 -2 25 -72 25 -50 0 -73 4 -75 12 -2 7 -8 2 -15 -12z"/>
<path d="M2730 2470 c0 -5 5 -10 11 -10 5 0 7 5 4 10 -3 6 -8 10 -11 10 -2 0
-4 -4 -4 -10z"/>
<path d="M2655 1850 c3 -5 10 -10 16 -10 5 0 9 5 9 10 0 6 -7 10 -16 10 -8 0
-12 -4 -9 -10z"/>
<path d="M2628 1833 c7 -3 16 -2 19 1 4 3 -2 6 -13 5 -11 0 -14 -3 -6 -6z"/>
<path d="M2653 1723 c9 -2 23 -2 30 0 6 3 -1 5 -18 5 -16 0 -22 -2 -12 -5z"/>
<path d="M2658 1613 c12 -2 32 -2 45 0 12 2 2 4 -23 4 -25 0 -35 -2 -22 -4z"/>
<path d="M4160 3395 l0 -65 -530 0 c-517 0 -531 -1 -550 -20 -19 -19 -20 -33
-20 -392 0 -205 3 -383 6 -394 13 -50 -83 -48 2049 -49 1981 0 1995 0 2014 20
19 19 20 36 23 412 2 304 -1 396 -10 405 -10 10 -139 14 -550 18 l-537 5 3 63
4 62 -36 0 -36 0 0 -65 0 -65 -880 0 -880 0 0 65 0 65 -35 0 -35 0 0 -65z
m-772 -252 l-3 -98 -75 -1 c-41 -1 -90 1 -107 3 l-33 5 0 87 c0 48 3 91 7 94
3 4 53 7 110 7 l104 0 -3 -97z m323 93 c2 -2 3 -47 1 -99 l-3 -95 -98 -1 c-54
-1 -105 1 -114 5 -14 5 -17 21 -17 100 l0 94 113 0 c63 0 116 -2 118 -4z m309
-90 l0 -95 -42 -6 c-24 -3 -54 -4 -68 -1 -14 2 -44 5 -67 5 l-43 1 0 95 0 95
110 0 110 0 0 -94z m310 5 c0 -50 -4 -92 -8 -95 -14 -9 -170 -18 -192 -11 -18
6 -20 14 -20 101 l0 94 110 0 110 0 0 -89z m290 -10 l0 -100 -97 3 c-54 2
-101 4 -105 5 -5 1 -8 44 -8 96 l0 95 105 0 105 0 0 -99z m300 5 l0 -93 -59
-7 c-33 -4 -83 -4 -110 0 l-51 7 0 87 c0 47 3 90 7 93 3 4 53 7 110 7 l103 0
0 -94z m308 -1 l-1 -95 -109 0 -108 0 0 95 0 95 109 0 110 0 -1 -95z m302 1
l0 -95 -42 -6 c-24 -4 -56 -4 -73 -2 -16 3 -47 6 -67 6 l-38 1 0 95 0 95 110
0 110 0 0 -94z m308 -3 l-3 -98 -70 -1 c-38 -1 -89 1 -113 4 l-43 5 2 86 c1
47 3 89 6 94 2 4 54 7 114 7 l110 0 -3 -97z m422 2 l0 -95 -170 0 -170 0 0 95
0 95 170 0 170 0 0 -95z m270 1 l0 -94 -52 -4 c-29 -1 -70 -2 -90 0 l-38 3 0
95 0 94 90 0 90 0 0 -94z m254 86 c3 -5 2 -48 -1 -95 l-6 -87 -78 0 -79 0 0
95 0 95 79 0 c44 0 82 -4 85 -8z m272 -14 c-3 -13 -6 -57 -6 -98 l0 -75 -85 3
-85 3 -1 32 c-1 28 -1 128 1 150 0 4 41 7 91 7 90 0 91 0 85 -22z m-3668 -355
l-3 -98 -107 -3 -108 -3 0 101 0 100 110 0 111 0 -3 -97z m240 0 l-3 -98 -72
-3 -73 -3 0 85 c0 46 -3 91 -6 100 -5 14 5 16 75 16 l82 0 -3 -97z m268 66
c-3 -17 -6 -63 -6 -101 l0 -69 -87 3 -88 3 -3 98 -3 97 97 0 97 0 -7 -31z
m270 -21 c-3 -29 -6 -74 -6 -100 l0 -48 -90 0 -90 0 0 100 0 100 96 0 97 0 -7
-52z m282 -45 l-3 -98 -97 -3 -98 -3 0 101 0 100 101 0 100 0 -3 -97z m290 0
l-5 -98 -101 -3 -102 -3 0 78 c0 43 -3 88 -6 101 -6 22 -6 22 106 22 l112 0
-4 -97z m278 75 c-3 -13 -6 -58 -6 -100 l0 -78 -95 0 -95 0 0 100 0 100 101 0
c100 0 101 0 95 -22z m230 -30 c-3 -29 -6 -74 -6 -100 l0 -48 -75 0 -75 0 0
100 0 100 81 0 81 0 -6 -52z m238 -40 c-3 -51 -9 -95 -11 -98 -3 -3 -35 -5
-71 -5 l-67 0 -3 98 -3 97 81 0 82 0 -8 -92z m244 -5 l-3 -98 -75 0 -75 0 -1
98 -1 97 79 0 79 0 -3 -97z m268 81 c-3 -9 -6 -54 -6 -100 l0 -84 -90 0 -90 0
0 100 0 100 96 0 c84 0 95 -2 90 -16z m270 -21 c-3 -21 -6 -66 -6 -100 l0 -63
-88 0 c-49 0 -91 2 -93 4 -2 2 -3 47 -1 100 l3 96 96 0 96 0 -7 -37z m270 6
c-3 -17 -6 -63 -6 -101 l0 -69 -87 3 -88 3 -3 98 -3 97 97 0 97 0 -7 -31z
m250 -30 c-3 -34 -6 -79 -6 -101 l0 -39 -82 3 c-46 2 -82 6 -80 11 1 4 2 48 2
97 l0 90 86 0 87 0 -7 -61z m272 -36 l-3 -98 -90 0 c-79 0 -90 2 -89 18 0 9 1
53 2 97 l2 80 90 0 91 0 -3 -97z m-3670 -235 l-3 -43 -105 0 -105 0 -3 43 -3
42 111 0 111 0 -3 -42z m232 -3 l0 -45 -70 0 -70 0 0 45 0 45 70 0 70 0 0 -45z
m271 41 c3 -3 3 -23 1 -45 l-4 -41 -89 0 -89 0 0 45 0 45 88 0 c49 0 91 -2 93
-4z m279 -35 c0 -22 -5 -43 -10 -46 -6 -4 -49 -4 -95 0 l-85 7 0 39 0 39 95 0
95 0 0 -39z m820 -1 c0 -49 42 -44 -392 -45 l-338 0 0 43 0 42 365 0 365 0 0
-40z m240 -5 l0 -45 -75 0 -75 0 0 45 0 45 75 0 75 0 0 -45z m256 23 c-3 -13
-6 -33 -6 -46 0 -22 -3 -23 -77 -20 -77 3 -78 3 -81 31 -6 53 0 57 89 57 79 0
81 -1 75 -22z m242 -1 c2 -10 1 -30 -2 -43 -6 -24 -9 -25 -79 -22 -71 3 -72 3
-75 31 -6 53 1 58 80 55 61 -3 73 -6 76 -21z m260 -19 l-3 -43 -85 0 -85 0 -3
43 -3 42 91 0 91 0 -3 -42z m272 -3 l0 -45 -89 0 c-72 0 -90 3 -95 16 -8 21
-8 59 1 67 3 4 46 7 95 7 l88 0 0 -45z m270 5 c0 -36 -2 -40 -32 -45 -18 -4
-58 -5 -88 -3 l-55 3 -3 43 -3 42 90 0 91 0 0 -40z m250 -5 l0 -45 -80 0 -80
0 0 45 0 45 80 0 80 0 0 -45z m280 31 c0 -7 -3 -28 -6 -45 l-7 -32 -86 3 -86
3 -3 28 c-6 53 0 57 98 57 70 0 90 -3 90 -14z"/>
<path d="M8680 2930 c-14 -4 -153 -9 -310 -9 -254 -1 -287 -3 -306 -19 -54
-43 -60 -123 -15 -174 l29 -33 314 -5 c172 -3 319 -9 326 -13 17 -12 264 122
260 140 -2 8 -51 36 -110 62 -60 26 -111 51 -115 54 -8 9 -41 7 -73 -3z m51
-80 c46 -13 69 -37 48 -51 -8 -5 -34 -9 -59 -10 -40 -1 -42 -2 -15 -8 30 -7
29 -7 -13 -15 -24 -4 -45 -6 -47 -4 -4 4 -8 55 -6 81 1 20 36 23 92 7z m-163
-37 l-3 -38 -231 -3 -232 -2 -5 27 c-10 54 -13 53 240 53 l234 0 -3 -37z"/>
<path d="M8148 2793 c6 -2 18 -2 25 0 6 3 1 5 -13 5 -14 0 -19 -2 -12 -5z"/>
<path d="M9110 2903 c-55 -20 -80 -80 -56 -136 20 -49 65 -72 111 -57 90 30
102 146 20 185 -34 16 -49 17 -75 8z m57 -64 c8 -8 9 -18 0 -36 -20 -45 -71
-14 -53 33 6 17 37 19 53 3z"/>
<path d="M1620 2670 c-137 -5 -145 -6 -145 -25 0 -23 116 -135 140 -135 21 0
19 27 -6 61 l-20 29 115 0 c69 0 116 -4 116 -10 0 -5 -12 -18 -27 -27 -15 -10
-35 -25 -43 -33 -9 -8 -45 -41 -80 -73 l-63 -58 96 -96 c54 -53 97 -98 97
-100 0 -2 -45 -3 -100 -3 -55 0 -100 3 -100 7 0 3 7 14 15 23 14 15 14 19 -3
40 l-18 23 -55 -57 c-65 -69 -79 -94 -58 -107 8 -5 96 -9 195 -9 168 0 183 1
208 21 l26 20 0 230 c0 131 -4 238 -10 249 -12 22 -62 41 -104 38 -17 -1 -96
-5 -176 -8z"/>
<path d="M2155 2672 c-84 -2 -113 -7 -127 -19 -16 -15 -18 -38 -18 -253 0
-188 3 -240 14 -256 13 -17 29 -19 143 -22 117 -3 131 -2 153 16 l25 20 3 232
c4 301 13 288 -193 282z m17 -92 c0 -11 1 -26 2 -32 1 -7 -5 -12 -11 -10 -10
1 -13 -37 -13 -168 l0 -170 -30 0 -30 0 0 200 0 200 40 0 c33 0 40 -4 42 -20z
m98 -180 l0 -200 -25 0 -25 0 0 200 0 200 25 0 25 0 0 -200z"/>
<path d="M1041 2644 c-20 -25 -21 -39 -21 -241 0 -231 7 -267 53 -278 12 -3
83 -4 157 -3 l135 3 3 38 3 37 -85 0 c-49 0 -86 4 -86 10 0 5 32 45 70 89 73
82 82 101 52 101 -19 0 -192 -171 -192 -190 0 -5 -7 -10 -15 -10 -13 0 -15 29
-15 200 l0 200 135 0 135 0 0 35 0 35 -154 0 -155 0 -20 -26z"/>
<path d="M8079 2563 c-53 -45 -59 -72 -59 -274 0 -153 3 -185 17 -210 35 -59
33 -59 585 -59 322 0 517 4 541 11 26 7 44 21 57 42 18 29 20 51 20 217 0 208
-7 236 -69 277 l-34 23 -513 0 -512 0 -33 -27z m101 -123 c0 -68 3 -81 19 -90
41 -21 51 -4 51 89 l0 86 40 0 c35 0 40 -2 40 -22 0 -16 6 -23 20 -23 13 0 20
7 20 19 0 22 28 35 54 25 9 -3 16 -17 16 -30 0 -17 6 -24 20 -24 15 0 20 7 20
25 0 22 4 25 39 25 34 0 38 -3 34 -20 -4 -16 0 -20 21 -20 19 0 26 5 26 20 0
31 57 28 62 -2 2 -15 11 -24 26 -26 18 -3 22 1 22 22 0 31 13 40 46 32 19 -5
24 -12 22 -29 -2 -16 3 -23 20 -25 18 -3 22 1 22 22 0 19 6 26 20 28 11 0 25
1 32 2 7 1 15 -10 18 -24 4 -16 14 -26 29 -28 19 -3 22 0 19 20 -3 20 2 23 35
26 l37 3 0 -85 0 -86 36 0 36 0 -4 45 c-2 25 1 45 5 45 5 0 5 21 1 46 -6 45
-6 46 17 39 54 -16 59 -33 59 -219 0 -120 -4 -176 -12 -184 -9 -9 -139 -12
-525 -12 l-513 0 -10 26 c-6 14 -10 90 -10 170 0 112 4 152 16 175 14 29 51
52 67 42 4 -2 7 -40 7 -83z"/>
<path d="M8608 2353 l-216 -3 -4 -63 c-5 -99 -2 -107 38 -107 36 0 36 -1 38
85 1 26 5 30 32 33 l30 3 -4 -61 -4 -60 41 0 41 0 0 60 0 60 35 0 35 0 0 -61
0 -60 38 3 37 3 3 58 c3 56 4 57 32 57 30 0 30 0 30 -60 l0 -60 35 0 35 0 0
84 c0 78 -1 84 -22 90 -13 3 -25 5 -28 4 -3 -2 -102 -4 -222 -5z"/>
<path d="M7280 2514 c0 -40 2 -45 15 -34 12 10 15 9 15 -4 0 -14 10 -16 68
-14 l67 3 0 30 c0 27 -4 30 -33 33 -18 2 -36 10 -39 18 -3 9 -20 14 -49 14
l-44 0 0 -46z"/>
<path d="M4070 2352 c-30 -20 -73 -50 -94 -67 l-39 -29 -48 52 -48 53 -25 -22
-25 -22 39 -50 c22 -27 40 -54 40 -60 0 -5 -16 -25 -37 -44 l-36 -35 26 -26
27 -27 67 66 c92 90 151 135 206 159 26 12 47 23 47 26 0 12 -31 64 -38 63 -4
0 -32 -17 -62 -37z"/>
<path d="M4572 2360 c-15 -25 -16 -50 -1 -50 36 0 227 -168 201 -177 -6 -3
-10 -8 -7 -12 2 -5 -1 -16 -9 -26 -12 -16 -16 -14 -61 30 -100 97 -135 112
-135 61 0 -17 16 -36 53 -64 29 -23 62 -52 75 -66 12 -15 25 -26 29 -26 7 0
33 37 58 82 13 25 20 23 47 -12 27 -34 48 -33 68 5 11 21 9 27 -24 62 -20 21
-36 41 -36 44 0 10 64 89 72 89 17 0 7 28 -14 43 -22 15 -25 13 -75 -36 l-53
-51 -27 25 c-44 41 -125 99 -137 99 -6 0 -17 -9 -24 -20z"/>
<path d="M3035 2354 c-40 -21 -64 -43 -84 -79 -14 -26 -16 -76 -16 -410 0
-350 2 -384 19 -429 23 -59 83 -128 143 -163 47 -27 48 -43 2 -43 -41 0 -93
-24 -113 -51 -26 -38 -21 -111 10 -148 l26 -31 290 0 290 0 29 29 c23 23 29
38 29 71 0 81 -49 130 -130 130 -52 0 -53 21 -1 45 54 24 105 79 136 147 l26
57 -3 393 c-3 439 -1 423 -76 470 -35 21 -47 23 -292 25 -214 2 -260 0 -285
-13z m235 -125 c0 -76 12 -99 50 -99 16 0 31 4 34 9 4 5 7 41 7 80 l1 71 99 0
c88 0 100 -2 119 -22 17 -18 20 -34 18 -92 l-1 -71 -8 55 c-4 30 -5 -38 -2
-151 5 -202 5 -207 -17 -227 -27 -25 -25 -75 5 -81 30 -5 35 -19 35 -106 0
-104 -12 -143 -60 -198 -60 -67 -101 -80 -252 -76 -118 4 -127 6 -174 34 -30
19 -60 49 -79 79 l-30 49 -3 370 -3 369 23 34 23 34 108 0 107 0 0 -61z"/>
<path d="M3497 2212 c-13 -14 -17 -39 -17 -105 l0 -87 -165 0 -164 0 -3 93 -3
92 -30 -3 c-16 -2 -33 -6 -37 -10 -4 -4 -8 -44 -9 -90 -1 -61 -5 -85 -17 -91
-12 -7 -13 -18 -3 -77 16 -94 19 -102 43 -115 11 -6 103 -12 221 -14 166 -3
206 -1 224 11 23 14 23 18 23 197 0 100 -5 189 -10 197 -5 8 -10 11 -10 6 0
-5 -6 -3 -13 3 -11 8 -18 7 -30 -7z"/>
<path d="M3080 1731 c0 -28 3 -31 31 -31 27 0 30 3 27 28 -2 21 -9 28 -30 30
-25 3 -28 0 -28 -27z"/>
<path d="M3210 1725 c0 -20 5 -25 25 -25 20 0 25 5 25 25 0 20 -5 25 -25 25
-20 0 -25 -5 -25 -25z"/>
<path d="M5074 2360 c-12 -4 -31 -21 -43 -36 -20 -26 -21 -36 -21 -314 l0
-288 31 -26 31 -26 318 0 319 0 28 24 28 24 3 283 c3 305 1 324 -47 352 -26
15 -65 17 -328 16 -164 0 -308 -4 -319 -9z m566 -95 l0 -35 -222 -1 c-123 -1
-227 -1 -232 0 -5 1 -13 -4 -17 -11 -7 -10 -9 -9 -9 5 0 9 5 17 10 17 6 0 10
4 10 8 0 4 -9 8 -21 8 -18 0 -20 -5 -15 -30 4 -17 12 -34 19 -38 9 -6 8 -8 -3
-8 -12 0 -13 -2 -1 -9 10 -7 12 -23 6 -72 -4 -35 -9 -110 -10 -166 l-3 -103
213 0 c257 0 275 -3 275 -40 l0 -27 -272 -6 c-212 -6 -274 -4 -280 5 -4 7 -7
121 -7 254 0 198 3 245 15 262 15 22 20 22 280 22 l264 0 0 -35z m-17 -68 c3
-8 6 -86 6 -174 2 -174 2 -174 -54 -164 l-30 6 -3 105 c-4 141 5 233 24 226 7
-3 16 -1 19 4 9 14 32 12 38 -3z"/>
<path d="M5595 2189 c-4 -6 -5 -12 -2 -15 2 -3 7 2 10 11 7 17 1 20 -8 4z"/>
<path d="M5561 2175 c1 -19 18 -51 18 -35 0 8 -4 22 -9 30 -5 8 -9 11 -9 5z"/>
<path d="M5887 2353 c-7 -23 -7 -463 -1 -485 3 -11 15 -18 29 -18 l24 0 3 148
c2 81 0 151 -3 155 -3 4 -2 31 3 59 6 34 6 54 -1 61 -7 7 -7 14 0 23 6 7 9 25
7 41 -2 22 -9 29 -30 31 -19 2 -28 -2 -31 -15z"/>
<path d="M6645 2348 c-46 -25 -45 -8 -45 -673 0 -621 0 -632 20 -653 20 -21
27 -22 244 -22 l223 0 27 26 26 27 0 626 c-1 661 1 644 -47 669 -29 16 -420
16 -448 0z m415 -643 c0 -377 -3 -575 -10 -575 -5 0 -10 7 -10 16 0 24 -34 12
-38 -13 -2 -16 3 -22 19 -25 39 -5 35 -28 -5 -28 l-36 0 0 70 0 70 -35 0 -35
0 0 -70 0 -70 -120 0 c-100 0 -120 3 -120 15 0 12 13 15 55 15 52 0 55 1 55
25 0 24 -3 25 -55 25 -41 0 -55 4 -55 14 0 11 15 16 53 18 45 3 52 6 55 25 3
20 -2 22 -50 25 -41 2 -54 7 -56 21 -3 15 6 17 82 17 76 0 85 2 91 20 11 35
-2 41 -86 34 -77 -7 -79 -6 -79 15 0 19 4 21 34 16 38 -8 76 8 76 30 0 11 -13
15 -55 15 -48 0 -55 2 -55 20 0 18 7 20 85 20 l85 0 0 30 0 29 -85 -3 c-77 -3
-85 -1 -85 15 0 16 8 19 45 19 38 0 45 3 45 20 0 17 -7 20 -45 20 -34 0 -45 4
-45 16 0 13 9 15 48 12 42 -3 47 -1 50 20 3 20 0 22 -47 22 -42 0 -51 3 -51
18 0 15 11 17 83 17 l82 0 3 29 4 29 -91 -7 c-78 -6 -91 -5 -91 8 0 11 14 16
58 18 49 3 57 6 57 23 0 18 -6 20 -57 17 -53 -3 -58 -2 -58 17 0 20 5 21 89
21 81 0 90 2 96 20 12 38 -2 43 -97 35 -84 -6 -90 -5 -86 12 2 14 14 19 50 21
40 3 47 6 52 28 10 37 0 44 -55 44 -40 0 -49 3 -49 18 0 15 9 17 58 17 52 0
57 2 60 23 3 21 0 22 -57 22 -55 0 -61 2 -61 21 0 18 5 20 53 18 50 -3 52 -2
55 24 3 26 2 27 -52 27 -43 0 -56 3 -56 15 0 12 13 15 59 15 41 0 62 5 72 16
19 23 -5 35 -71 32 -45 -1 -56 1 -58 15 -3 16 14 17 192 17 l196 0 0 -575z
m-322 248 c-10 -2 -28 -2 -40 0 -13 2 -5 4 17 4 22 1 32 -1 23 -4z"/>
<path d="M6937 1922 c-10 -10 -17 -26 -17 -35 0 -19 26 -47 45 -47 41 0 61 71
26 90 -27 14 -35 13 -54 -8z"/>
<path d="M6936 1565 c-32 -33 -6 -89 38 -83 26 4 45 52 30 76 -15 23 -48 27
-68 7z"/>
<path d="M7333 2338 c-17 -23 -112 -255 -118 -291 -4 -21 -3 -37 4 -41 8 -5
11 -149 11 -477 l0 -471 29 -29 c26 -26 37 -29 89 -29 52 0 64 4 91 29 l31 29
0 466 c0 341 3 471 12 485 10 16 3 40 -37 143 -76 193 -89 216 -112 186z m29
-200 c3 -24 8 -52 13 -63 8 -18 7 -18 -8 -7 -14 12 -20 10 -40 -12 -29 -31
-37 -32 -37 -6 0 26 46 130 58 130 6 0 12 -19 14 -42z m-6 -175 c4 -10 8 -115
10 -233 1 -118 5 -286 7 -372 4 -113 2 -158 -6 -158 -8 0 -7 -4 1 -12 7 -7 12
-30 11 -52 0 -23 -3 -35 -6 -28 -8 20 -20 14 -19 -10 1 -18 -4 -22 -19 -20
-11 2 -23 9 -27 15 -4 7 -8 199 -8 427 0 360 2 419 16 438 18 27 29 28 40 5z"/>
<path d="M4310 2306 c0 -26 -5 -35 -22 -40 -45 -12 -58 -6 -72 29 -8 19 -16
35 -18 35 -7 0 -6 -116 1 -128 6 -11 20 -11 64 -3 37 7 84 7 139 1 45 -5 83
-8 85 -6 2 2 5 16 6 32 2 28 0 29 -55 37 -57 9 -58 10 -58 43 0 32 -2 34 -35
34 -33 0 -35 -2 -35 -34z"/>
<path d="M6158 2324 c-85 -46 -73 -192 19 -231 102 -42 206 56 171 162 -24 73
-119 108 -190 69z m106 -70 c32 -31 7 -94 -37 -94 -27 0 -57 28 -57 53 0 48
61 74 94 41z"/>
<path d="M4097 2197 c-57 -30 -147 -101 -147 -116 0 -4 6 -16 14 -27 14 -18
16 -18 58 22 24 22 62 55 85 73 37 28 62 65 51 76 -2 2 -29 -10 -61 -28z"/>
<path d="M6420 2141 c0 -26 3 -29 46 -35 73 -10 74 -9 74 29 l0 35 -60 0 c-59
0 -60 0 -60 -29z"/>
<path d="M4321 2099 c-18 -51 14 -85 50 -53 30 27 22 68 -14 72 -21 3 -29 -2
-36 -19z"/>
<path d="M4120 2061 c-51 -28 -135 -115 -161 -169 -28 -57 -37 -172 -19 -249
15 -67 78 -163 138 -208 52 -40 58 -42 66 -17 4 13 -9 35 -44 73 -78 84 -105
147 -105 244 1 53 7 95 19 124 21 54 55 103 65 97 15 -10 51 25 51 49 0 13 4
26 9 29 7 5 24 47 18 46 -1 -1 -18 -9 -37 -19z"/>
<path d="M1083 2010 c-13 -5 -32 -24 -43 -42 -19 -32 -20 -50 -20 -456 0 -465
-1 -460 60 -496 25 -14 89 -16 602 -16 557 0 574 1 606 20 61 37 62 47 62 487
0 249 -4 412 -11 436 -7 26 -21 44 -42 57 -31 19 -55 20 -612 19 -320 0 -590
-4 -602 -9z m165 -492 l-3 -423 -58 -3 c-35 -2 -64 2 -73 9 -12 9 -14 79 -14
413 0 299 3 405 12 414 7 7 39 12 75 12 l63 0 -2 -422z m792 323 l0 -99 -42
-7 c-67 -12 -662 5 -670 19 -4 6 -8 50 -8 99 l0 87 360 0 360 0 0 -99z m209
85 c16 -19 16 -803 0 -823 -18 -21 -116 -17 -127 5 -5 9 -7 200 -4 425 l4 407
58 0 c37 0 62 -5 69 -14z m-825 -282 c3 -8 10 -12 16 -9 5 3 10 1 10 -4 0 -6
-7 -11 -15 -11 -8 0 -15 -4 -15 -10 0 -5 -18 -13 -39 -16 -38 -6 -40 -8 -44
-48 -2 -26 -4 -15 -5 31 -2 61 1 72 16 76 38 10 70 6 76 -9z m193 -1 c9 -23
-32 -53 -72 -53 -36 0 -71 31 -62 55 9 23 125 22 134 -2z m148 -13 c0 -20 -6
-26 -28 -28 -24 -3 -27 0 -27 28 0 28 3 31 28 28 21 -2 27 -8 27 -28z m150 20
c4 -7 12 -7 18 -2 14 10 87 16 87 7 0 -4 -20 -27 -44 -53 -24 -26 -55 -59 -68
-74 -44 -49 -58 -38 -58 45 0 41 3 77 7 80 10 11 51 8 58 -3z m-389 -261 c-3
-17 -6 -53 -6 -80 l0 -49 -95 0 -95 0 0 80 0 80 101 0 102 0 -7 -31z m504 16
c0 -8 -13 -21 -29 -29 -35 -18 -117 -96 -113 -108 1 -4 -7 -8 -18 -8 -18 0
-20 7 -20 80 l0 80 90 0 c73 0 90 -3 90 -15z"/>
<path d="M1140 1871 c0 -30 19 -45 45 -35 30 12 13 64 -21 64 -20 0 -24 -5
-24 -29z"/>
<path d="M1134 1176 c-8 -34 2 -46 37 -46 27 0 29 3 29 35 0 32 -2 35 -30 35
-23 0 -31 -5 -36 -24z"/>
<path d="M2166 1884 c-8 -22 11 -54 33 -54 22 0 34 25 26 51 -8 23 -50 25 -59
3z"/>
<path d="M2164 1176 c-8 -34 2 -46 37 -46 27 0 29 3 29 35 0 32 -2 35 -30 35
-23 0 -31 -5 -36 -24z"/>
<path d="M4758 2008 c-3 -7 6 -37 19 -65 25 -55 24 -73 -6 -73 -10 0 -25 17
-39 45 -24 49 -29 52 -56 32 -17 -13 -17 -16 -2 -44 21 -42 39 -166 31 -219
-10 -67 -61 -159 -111 -201 -31 -25 -44 -43 -42 -57 5 -37 36 -29 88 23 28 28
55 51 61 51 5 0 20 24 33 53 23 52 24 53 60 49 22 -3 36 -10 36 -18 0 -19 -66
-151 -80 -159 -5 -3 -10 -11 -10 -17 0 -6 9 -3 21 7 31 29 99 175 102 220 l2
40 -47 3 -48 3 0 55 0 54 51 0 52 0 -5 44 c-11 93 -94 224 -110 174z"/>
<path d="M6150 1960 c0 -36 -3 -41 -37 -55 -48 -20 -98 -68 -126 -120 -21 -38
-22 -52 -22 -310 0 -260 1 -272 23 -315 53 -106 141 -163 252 -164 117 0 206
58 261 171 20 42 21 58 20 329 -1 226 -4 291 -15 313 -16 30 -90 101 -106 101
-6 0 -10 13 -10 29 0 49 -9 61 -46 61 -34 0 -34 -1 -34 -45 0 -39 -3 -45 -25
-51 -42 -11 -55 1 -55 51 l0 45 -40 0 c-40 0 -40 0 -40 -40z m45 -124 c12 -8
33 -12 56 -9 31 5 42 1 63 -20 38 -38 49 -96 43 -225 -4 -100 -7 -116 -27
-137 -26 -28 -101 -65 -130 -65 -28 0 -89 58 -128 123 -72 120 -43 279 60 330
40 20 40 20 63 3z m-51 -591 c8 -19 20 -35 25 -35 6 0 11 -7 11 -15 0 -25 -27
-17 -54 16 -29 35 -31 40 -14 57 16 16 16 17 32 -23z"/>
<path d="M6232 1748 c-16 -16 -16 -160 0 -176 16 -16 53 -15 68 3 18 22 23
125 8 155 -15 28 -56 38 -76 18z"/>
<path d="M4410 1935 c-13 -35 -14 -34 16 -45 19 -7 31 -7 40 1 22 18 16 37
-16 54 -29 15 -31 15 -40 -10z"/>
<path d="M4238 1936 c-37 -28 -8 -67 33 -46 20 11 23 19 13 44 -7 19 -23 20
-46 2z"/>
<path d="M8347 1943 c-4 -3 -7 -16 -7 -28 0 -29 -16 -42 -61 -50 -28 -5 -38
-3 -42 9 -9 22 -39 20 -66 -5 -28 -26 -23 -41 18 -52 28 -7 37 -5 52 12 18 20
21 20 53 4 35 -16 46 -36 46 -85 0 -15 4 -29 9 -33 14 -8 31 28 31 64 0 20 8
35 22 45 28 20 67 20 74 1 7 -17 34 -21 34 -4 0 6 8 8 19 4 10 -3 23 1 29 8
15 17 -1 38 -40 55 -24 10 -29 9 -38 -8 -6 -12 -21 -20 -36 -20 -30 0 -74 41
-74 70 0 20 -11 26 -23 13z"/>
<path d="M7932 1898 c-11 -24 -39 -87 -62 -141 -22 -55 -61 -142 -86 -195
l-45 -95 5 -209 c3 -171 7 -213 20 -233 l16 -25 174 0 c162 0 174 1 192 21 17
19 18 37 15 252 -2 144 -7 239 -14 252 -6 11 -48 108 -93 215 -45 107 -86 196
-92 198 -6 2 -20 -16 -30 -40z m-2 -298 c0 -34 4 -41 25 -46 14 -3 31 -1 39 5
11 9 16 3 25 -33 13 -54 14 -146 2 -179 -11 -28 -26 -33 -128 -43 l-73 -7 0
83 c0 77 3 89 45 177 46 99 65 111 65 43z m-64 -386 c-3 -9 -6 -42 -6 -75 0
-52 -2 -59 -20 -59 -18 0 -20 7 -20 75 0 74 0 75 26 75 20 0 25 -4 20 -16z"/>
<path d="M9024 1894 c-4 -14 -2 -30 3 -35 5 -5 52 -8 104 -7 l94 3 3 33 3 32
-100 0 c-100 0 -101 0 -107 -26z"/>
<path d="M4274 1876 c-36 -16 -74 -84 -74 -133 0 -17 7 -48 16 -69 15 -35 15
-40 -1 -66 -13 -23 -14 -32 -5 -43 18 -22 49 -18 61 8 9 20 17 22 84 22 64 0
75 -3 75 -17 0 -22 15 -31 39 -23 29 9 35 37 12 56 -20 16 -20 16 1 73 20 54
20 57 4 100 -10 25 -33 59 -52 76 -28 24 -43 30 -82 30 -26 -1 -61 -7 -78 -14z
m113 -88 c29 -27 30 -71 1 -98 -24 -22 -68 -27 -68 -8 0 6 -3 8 -7 5 -10 -10
-32 25 -33 52 0 30 36 71 64 71 11 0 30 -10 43 -22z"/>
<path d="M7550 1526 c0 -173 3 -321 6 -330 4 -10 18 -16 35 -16 l29 0 2 298 3
297 50 5 c46 5 50 7 53 33 l3 27 -90 0 -91 0 0 -314z"/>
<path d="M8760 1780 c-200 -24 -358 -174 -390 -372 -16 -101 -13 -145 10 -161
l21 -14 -21 -6 c-17 -4 -20 -13 -20 -61 0 -64 17 -113 51 -145 22 -21 29 -21
380 -21 240 0 366 4 382 11 14 6 34 28 45 48 19 33 21 54 21 196 0 215 -19
286 -108 387 -96 109 -222 155 -371 138z m167 -85 c84 -25 85 -33 7 -120 -104
-114 -145 -114 -264 -2 -83 79 -82 86 14 116 74 24 175 26 243 6z m-298 -194
l62 -74 -46 -47 -47 -47 -79 -2 -79 -2 0 28 c0 64 32 151 77 211 29 39 20 44
112 -67z m496 -6 c28 -60 42 -140 26 -149 -6 -4 -43 -9 -81 -11 l-70 -3 -45
45 -46 45 58 69 c32 39 65 79 73 89 15 19 16 18 38 -8 13 -15 34 -49 47 -77z
m-283 -129 l33 -33 -76 0 -76 0 30 34 c17 18 36 33 43 33 6 0 27 -15 46 -34z
m318 -139 c0 -19 -3 -37 -7 -41 -4 -4 -6 -23 -4 -42 4 -46 -13 -64 -60 -64
-41 0 -44 4 -51 70 -2 17 -10 26 -26 28 -36 5 -51 -13 -45 -58 4 -26 2 -40 -6
-40 -6 0 -11 15 -11 34 0 66 1 66 -141 66 l-129 0 -1 -27 c-2 -65 -5 -76 -16
-80 -9 -3 -13 5 -13 24 0 58 -10 73 -46 73 -34 0 -34 0 -34 -47 l0 -48 -55 3
c-66 5 -70 10 -78 110 l-6 72 365 0 364 0 0 -33z"/>
<path d="M9120 1216 c0 -2 7 -6 15 -10 8 -3 15 -1 15 4 0 6 -7 10 -15 10 -8 0
-15 -2 -15 -4z"/>
<path d="M8823 1203 c15 -2 37 -2 50 0 12 2 0 4 -28 4 -27 0 -38 -2 -22 -4z"/>
<path d="M4100 1765 c-7 -9 -10 -25 -6 -41 5 -20 12 -25 34 -22 34 4 44 45 16
65 -23 17 -29 16 -44 -2z"/>
<path d="M4550 1766 c-6 -8 -10 -25 -8 -38 2 -18 9 -23 33 -23 24 0 31 5 33
24 3 15 -3 30 -14 38 -23 17 -29 16 -44 -1z"/>
<path d="M5066 1532 c-3 -3 -6 -39 -6 -79 l0 -74 33 3 c31 3 32 4 29 46 -2 41
-1 42 28 42 28 0 30 -2 30 -39 0 -21 3 -59 6 -85 6 -44 8 -46 40 -46 l34 0 0
85 0 85 50 0 50 0 0 -86 0 -85 33 3 32 3 3 83 3 82 44 0 44 0 3 -82 3 -83 35
0 35 0 3 83 3 82 29 0 c29 0 30 -2 30 -46 0 -45 0 -45 33 -42 31 3 32 4 35 57
2 30 1 65 -2 77 l-6 22 -324 0 c-179 0 -327 -3 -330 -6z"/>
<path d="M8238 1515 c-10 -22 -9 -28 3 -36 37 -23 74 5 52 40 -17 27 -42 25
-55 -4z"/>
<path d="M4327 1513 c-10 -9 -8 -45 2 -62 12 -18 48 -5 56 20 11 33 -35 66
-58 42z"/>
<path d="M4943 1504 c-10 -4 -13 -59 -13 -226 l0 -220 29 -29 29 -29 399 0
399 0 34 29 35 29 1 158 c1 88 0 190 -3 227 l-5 68 -32 -3 -31 -3 -3 -203 -2
-203 -26 -9 c-14 -6 -45 -10 -70 -10 l-44 0 0 60 0 60 -30 0 c-30 0 -30 -1
-30 -54 l0 -55 -277 -3 c-153 -2 -284 1 -290 6 -9 6 -13 64 -15 210 -3 193 -4
201 -23 203 -11 1 -26 -1 -32 -3z"/>
<path d="M3920 1440 c0 -48 40 -80 54 -44 7 18 -7 40 -36 55 -15 8 -18 6 -18
-11z"/>
<path d="M4435 1394 c-61 -17 -122 -18 -182 -3 -50 13 -66 3 -61 -36 6 -40
194 -56 287 -24 28 10 32 15 29 42 -4 37 -10 39 -73 21z"/>
<path d="M3990 1387 c0 -30 135 -130 180 -132 20 -1 26 -7 28 -33 3 -32 4 -32
56 -32 51 0 54 -1 59 -28 5 -25 9 -28 36 -24 25 3 31 9 31 28 0 22 4 24 49 24
45 0 50 -3 63 -30 15 -35 28 -38 52 -12 15 18 15 21 -4 45 -11 14 -20 28 -20
31 0 3 19 15 42 27 23 12 65 43 93 70 l52 49 47 -56 c27 -30 50 -53 53 -50 9
9 -21 76 -34 76 -7 0 -13 6 -13 13 0 11 -39 37 -55 37 -2 0 -32 -25 -67 -56
-58 -52 -63 -54 -75 -37 -9 11 -16 14 -21 7 -4 -5 -33 -18 -65 -28 -56 -18
-124 -18 -302 -3 -41 4 -70 22 -132 80 -33 31 -53 44 -53 34z"/>
<path d="M3860 1312 c-99 -54 -104 -177 -10 -240 30 -20 43 -23 90 -18 49 5
58 2 82 -21 27 -26 28 -26 48 -8 27 24 25 40 -6 62 -25 19 -26 19 -9 55 17 35
17 36 -10 84 -50 91 -118 122 -185 86z m96 -78 c41 -40 18 -100 -33 -91 -12 2
-24 -1 -27 -7 -7 -16 -46 33 -46 58 0 33 28 66 56 66 14 0 36 -11 50 -26z"/>
<path d="M3901 1206 c-8 -9 -11 -19 -7 -23 9 -9 29 13 24 27 -2 8 -8 7 -17 -4z"/>
<path d="M2627 1253 c-4 -3 -7 -19 -7 -35 0 -28 -1 -28 -60 -28 -62 0 -69 -6
-54 -44 5 -12 20 -16 59 -16 l54 0 3 -37 c2 -31 7 -39 27 -41 28 -4 41 12 41
51 0 26 2 27 55 27 48 0 55 2 55 20 0 11 0 23 0 28 0 4 -26 9 -57 12 -57 5
-58 6 -61 38 -3 26 -8 32 -26 32 -12 0 -26 -3 -29 -7z"/>
<path d="M5684 1176 c-11 -29 1 -51 26 -51 21 0 26 5 28 33 3 29 1 32 -23 32
-14 0 -28 -6 -31 -14z"/>
<path d="M4686 1074 c-21 -21 -20 -37 5 -60 22 -20 43 -13 63 20 9 14 6 21
-13 37 -28 23 -35 24 -55 3z"/>
<path d="M7560 1065 c-26 -32 13 -81 48 -59 34 22 22 74 -18 74 -10 0 -23 -7
-30 -15z"/>
<path d="M4170 1041 c0 -17 6 -31 16 -35 9 -3 71 -6 139 -6 116 0 125 1 135
21 24 44 11 49 -145 49 l-145 0 0 -29z"/>
</g>
</svg>
