<svg height="1024" preserveAspectRatio="none" viewBox="0 0 1024 1024" width="1024" xmlns="http://www.w3.org/2000/svg"><path d="m969.6 351.25q-8.6-20.85-19.4-40.85-6.1-11.35-12.9-22.4-29.35-47.55-71.55-89.8-138.25-138.25-333.8-138.25-191.75332031 0-328.45 133-2.65039062 2.60039063-5.3 5.25-138.25 138.25-138.25 333.75 0 126.20820313 57.55 228.55 31.67675781 56.22675781 80.7 105.25 138.25 138.2 333.75 138.2 195.55 0 333.8-138.2 76.15-76.2 110.35-169.75 27.85-76.25 27.85-164.05 0-67.35-16.4-127.95-1.85-6.85-3.9-13.6-6.15-19.95-14.05-39.15z" fill-opacity=".098039"/><path d="m966.05 378.4q-1.52421875-5.28554687-3.2-10.55-2.47128906-7.946875-5.25-15.8-9.75-27.55-23.15-53.65-5.8-11.35-12.3-22.4-30.65-52-76.35-97.75-109-109-253.65-132.05-24.5-3.9-50.05-5.35-14.9-.85-30.1-.85-14.1 0-27.9.75-177.55 9.2-305.85 137.5-7.27148437 7.27148438-14.15 14.7-124.1 133.8328125-124.1 319.05 0 138.65390625 69.5 248.5 28.52558594 45.07558594 68.75 85.3 84.79003906 84.75703125 191.1 117.55 54.53808594 16.81308594 114.75 19.95.2 0 .4 0 12.15.6 24.5.7 1.5 0 3 0 15.25 0 30.1-.8 3.5-.2 6.95-.45 30.05-2.15 58.7-7.7 11.8-2.3 23.4-5.15 120.6-30.05 214.65-124.1 72.9-72.95 107.35-161.8 27.75-71.6 30.55-153.5.3-9.2.3-18.5 0-1 0-2 0-.5 0-1-.35-61.3-14.3-117-1.75-6.85-3.65-13.6z" fill="#ccc"/><path d="m763.4 318.95v440.65h-371.75v23.65l-49.65.75 195.3 199.45q2.39902344-.12070312 4.8-.25 3.5-.2 6.95-.45 30.05-2.15 58.7-7.7 11.8-2.3 23.4-5.15 120.6-30.05 214.65-124.1 72.9-72.95 107.35-161.8 26.32304688-67.91816406 30.2-145.1z" fill-opacity=".2"/><g transform="matrix(3.76184082 0 0 3.76184082 240.5 229.2)"><path d="m143.15 27.1q-.85-.95-4.6-3.7l-26.6-18.7q-4.85-3.5-8.25-4.3-3.45-.75-11.1-.1l-83.5 6.1q-4.7.45-7.05 3.4-2.05 2.55-2.05 6.8v91.3q0 3.1 1.2 5.95 1.15 2.8 3.8 6.35l19.75 25.5q2.35 3 5.05 4 2.5.95 7.25.7l96.9-5.9q5.85-.4 8.3-3.2 2.2-2.5 2.2-7.6v-102.65q0-2.45-1.3-3.95m-20.4-4.9q.65.2 1.05 1.1.45.9-.75.9l-82.95 5q-7.2.55-9.1.25-2.75-.4-6.05-3.1l-11.4-9.05q-.95-.9-.4-1.75.65-.95 2.7-1.15l80.2-5.85q4.45-.4 7.95.95 2.25.8 4.95 2.85zm7.1 11.9q4.7-.35 4.7 5.6v86.6q0 3.4-.95 5-1.35 2.15-4.95 2.3l-91.1 5.3q-4 .25-5.8-1.15-1.8-1.45-1.8-4.95v-87.2q0-2.9 1-4.2 1.1-1.45 3.7-1.7zm-27.25 24.1v40.35l-29.85-45.6-21.7 1.5q-2.85.2-4.25 2.5-1.25 2-.75 4.2l7.3.6v57.6l-5.3 1.5q-1.4.4-1.95 2.15-.55 1.55-.05 2.55l20.2-1.2q4.55 0 6.4-2.65l.9-2.65-9.1-2v-43.6l28.65 45.1q2.95 3.65 4.25 4.55 1.85 1.3 5.15 1.3 4.2 0 10.3-3.2v-64.35l4.4-.9q1.85-.2 2.5-1.95.65-1.55.1-3.65l-20.1 1.1q-2.25.2-3.65 1.85-1.5 1.75-1.05 4.05z"/><path d="m134.55 39.7q0-5.95-4.7-5.6l-95.2 5.6q-2.6.25-3.7 1.7-1 1.3-1 4.2v87.2q0 3.5 1.8 4.95 1.8 1.4 5.8 1.15l91.1-5.3q3.6-.15 4.95-2.3.95-1.6.95-5zm-31.95 58.85v-40.35l-7.6-.85q-.45-2.3 1.05-4.05 1.4-1.65 3.65-1.85l20.1-1.1q.55 2.1-.1 3.65-.65 1.75-2.5 1.95l-4.4.9v64.35q-6.1 3.2-10.3 3.2-3.3 0-5.15-1.3-1.3-.9-4.25-4.55l-28.65-45.1v43.6l9.1 2-.9 2.65q-1.85 2.65-6.4 2.65l-20.2 1.2q-.5-1 .05-2.55.55-1.75 1.95-2.15l5.3-1.5v-57.6l-7.3-.6q-.5-2.2.75-4.2 1.4-2.3 4.25-2.5l21.7-1.5z" fill="#fff"/><path d="m123.8 23.3q-.4-.9-1.05-1.1l-13.8-9.85q-2.7-2.05-4.95-2.85-3.5-1.35-7.95-.95l-80.2 5.85q-2.05.2-2.7 1.15-.55.85.4 1.75l11.4 9.05q3.3 2.7 6.05 3.1 1.9.3 9.1-.25l82.95-5q1.2 0 .75-.9z" fill="#666"/></g></svg>